<svg width="64" height="64" viewBox="0 0 64 64" fill="none" xmlns="http://www.w3.org/2000/svg">
<g clip-path="url(#clip0_66_15072)">
<path d="M0 0H64V64H0V0Z" fill="#EE1C25"/>
<path d="M25.6 13.12L9.28 23.68L16 6.39999L21.76 23.68L6.4 13.12H25.6Z" fill="#FFFF00"/>
<path d="M29.5721 4.13118L35.3872 6.97931L29.3003 8.02517L33.2461 3.41591L32.8661 9.61334L29.5721 4.13118Z" fill="#FFFF00"/>
<path d="M36.9837 9.77604L41.2351 14.6658L35.217 13.2597L40.649 10.5473L37.8855 16.1122L36.9837 9.77604Z" fill="#FFFF00"/>
<path d="M38.3217 19.0664L40.2069 25.2692L35.2848 21.5263L41.3542 21.2682L36.5567 25.2217L38.3217 19.0664Z" fill="#FFFF00"/>
<path d="M33.2512 25.704L32.5968 32.1472L29.504 26.8L35.1968 28.9024L29.2512 30.696L33.2512 25.704Z" fill="#FFFF00"/>
</g>
<defs>
<clipPath id="clip0_66_15072">
<rect width="64" height="64" rx="32" fill="white"/>
</clipPath>
</defs>
</svg>
