<svg width="64" height="64" viewBox="0 0 64 64" fill="none" xmlns="http://www.w3.org/2000/svg">
<g clip-path="url(#clip0_66_14057)">
<path d="M0 0H64V21.3375H0V0Z" fill="#FF9933"/>
<path d="M0 21.3375H64V42.6625H0V21.3375Z" fill="white"/>
<path d="M0 42.6625H64V64H0V42.6625Z" fill="#128807"/>
<path d="M32 40.5333C36.7128 40.5333 40.5333 36.7128 40.5333 32C40.5333 27.2872 36.7128 23.4667 32 23.4667C27.2872 23.4667 23.4667 27.2872 23.4667 32C23.4667 36.7128 27.2872 40.5333 32 40.5333Z" fill="#000088"/>
<path d="M32 39.4666C36.1237 39.4666 39.4667 36.1237 39.4667 32C39.4667 27.8763 36.1237 24.5333 32 24.5333C27.8763 24.5333 24.5333 27.8763 24.5333 32C24.5333 36.1237 27.8763 39.4666 32 39.4666Z" fill="white"/>
<path d="M32 33.4933C32.8247 33.4933 33.4933 32.8247 33.4933 32C33.4933 31.1752 32.8247 30.5067 32 30.5067C31.1753 30.5067 30.5067 31.1752 30.5067 32C30.5067 32.8247 31.1753 33.4933 32 33.4933Z" fill="#000088"/>
<path d="M39.3525 33.3581C39.5628 33.3858 39.7557 33.2378 39.7834 33.0275C39.811 32.8172 39.663 32.6243 39.4528 32.5967C39.2425 32.569 39.0496 32.717 39.0219 32.9273C38.9942 33.1375 39.1423 33.3304 39.3525 33.3581Z" fill="#000088"/>
<path d="M32 39.4667L32.256 34.9867L32 32.8533L31.744 34.9867L32 39.4667Z" fill="#000088"/>
<path d="M38.7505 35.2148C38.9464 35.296 39.1711 35.2029 39.2522 35.007C39.3334 34.811 39.2403 34.5864 39.0444 34.5053C38.8485 34.4241 38.6238 34.5171 38.5427 34.7131C38.4615 34.909 38.5546 35.1336 38.7505 35.2148Z" fill="#000088"/>
<path d="M30.0675 39.2122L31.4743 34.9512L31.7791 32.8243L30.9797 34.8186L30.0675 39.2122Z" fill="#000088"/>
<path d="M37.6884 36.8524C37.8567 36.9815 38.0977 36.9498 38.2268 36.7815C38.3559 36.6133 38.3242 36.3722 38.156 36.2431C37.9877 36.114 37.7466 36.1458 37.6175 36.314C37.4884 36.4823 37.5202 36.7233 37.6884 36.8524Z" fill="#000088"/>
<path d="M28.2667 38.4663L30.7284 34.7145L31.5733 32.739L30.285 34.4585L28.2667 38.4663Z" fill="#000088"/>
<path d="M36.2387 38.1594C36.3678 38.3276 36.6089 38.3593 36.7771 38.2302C36.9454 38.1011 36.9771 37.8601 36.848 37.6918C36.7189 37.5236 36.4778 37.4918 36.3096 37.6209C36.1413 37.75 36.1096 37.9911 36.2387 38.1594Z" fill="#000088"/>
<path d="M26.7203 37.2797L30.0691 34.2929L31.3966 32.6034L29.7071 33.9309L26.7203 37.2797Z" fill="#000088"/>
<path d="M34.5001 39.0465C34.5813 39.2425 34.8059 39.3355 35.0018 39.2543C35.1978 39.1732 35.2908 38.9486 35.2097 38.7526C35.1285 38.5567 34.9039 38.4636 34.7079 38.5448C34.512 38.626 34.419 38.8506 34.5001 39.0465Z" fill="#000088"/>
<path d="M25.5337 35.7333L29.5415 33.715L31.261 32.4267L29.2855 33.2716L25.5337 35.7333Z" fill="#000088"/>
<path d="M32.5911 39.4535C32.6188 39.6637 32.8117 39.8117 33.022 39.7841C33.2322 39.7564 33.3803 39.5635 33.3526 39.3532C33.3249 39.143 33.132 38.9949 32.9217 39.0226C32.7115 39.0503 32.5635 39.2432 32.5911 39.4535Z" fill="#000088"/>
<path d="M24.7878 33.9325L29.1814 33.0203L31.1757 32.2208L29.0488 32.5257L24.7878 33.9325Z" fill="#000088"/>
<path d="M30.6419 39.3526C30.6142 39.5628 30.7622 39.7557 30.9725 39.7834C31.1828 39.8111 31.3757 39.6631 31.4033 39.4528C31.431 39.2425 31.283 39.0496 31.0727 39.022C30.8625 38.9943 30.6696 39.1423 30.6419 39.3526Z" fill="#000088"/>
<path d="M24.5333 32L29.0133 32.256L31.1467 32L29.0133 31.744L24.5333 32Z" fill="#000088"/>
<path d="M28.7852 38.7505C28.704 38.9464 28.7971 39.171 28.993 39.2522C29.189 39.3334 29.4136 39.2403 29.4947 39.0444C29.5759 38.8484 29.4829 38.6238 29.2869 38.5427C29.091 38.4615 28.8664 38.5545 28.7852 38.7505Z" fill="#000088"/>
<path d="M24.7878 30.0675L29.0488 31.4743L31.1757 31.7791L29.1814 30.9797L24.7878 30.0675Z" fill="#000088"/>
<path d="M27.1476 37.6884C27.0185 37.8567 27.0502 38.0977 27.2185 38.2268C27.3867 38.356 27.6278 38.3242 27.7569 38.156C27.886 37.9877 27.8543 37.7467 27.686 37.6176C27.5178 37.4884 27.2767 37.5202 27.1476 37.6884Z" fill="#000088"/>
<path d="M25.5337 28.2667L29.2855 30.7284L31.261 31.5734L29.5415 30.285L25.5337 28.2667Z" fill="#000088"/>
<path d="M25.8407 36.2387C25.6724 36.3678 25.6407 36.6088 25.7698 36.7771C25.8989 36.9453 26.1399 36.9771 26.3082 36.848C26.4764 36.7189 26.5082 36.4778 26.3791 36.3095C26.25 36.1413 26.0089 36.1096 25.8407 36.2387Z" fill="#000088"/>
<path d="M26.7203 26.7203L29.7071 30.0691L31.3966 31.3966L30.0691 29.7071L26.7203 26.7203Z" fill="#000088"/>
<path d="M24.9535 34.5001C24.7575 34.5813 24.6645 34.8059 24.7457 35.0018C24.8268 35.1978 25.0514 35.2908 25.2474 35.2097C25.4433 35.1285 25.5364 34.9039 25.4552 34.7079C25.374 34.512 25.1494 34.419 24.9535 34.5001Z" fill="#000088"/>
<path d="M28.2667 25.5337L30.285 29.5415L31.5733 31.261L30.7284 29.2855L28.2667 25.5337Z" fill="#000088"/>
<path d="M24.5465 32.5912C24.3362 32.6188 24.1882 32.8117 24.2159 33.022C24.2436 33.2323 24.4365 33.3803 24.6468 33.3526C24.857 33.3249 25.005 33.132 24.9773 32.9217C24.9497 32.7115 24.7568 32.5635 24.5465 32.5912Z" fill="#000088"/>
<path d="M30.0675 24.7878L30.9797 29.1814L31.7791 31.1758L31.4743 29.0489L30.0675 24.7878Z" fill="#000088"/>
<path d="M24.6475 30.6419C24.4372 30.6143 24.2443 30.7623 24.2166 30.9725C24.189 31.1828 24.337 31.3757 24.5472 31.4034C24.7575 31.4311 24.9504 31.283 24.9781 31.0728C25.0058 30.8625 24.8577 30.6696 24.6475 30.6419Z" fill="#000088"/>
<path d="M32 24.5334L31.744 29.0134L32 31.1467L32.256 29.0134L32 24.5334Z" fill="#000088"/>
<path d="M25.2495 28.7852C25.0536 28.7041 24.829 28.7971 24.7478 28.9931C24.6666 29.189 24.7597 29.4136 24.9556 29.4948C25.1515 29.5759 25.3762 29.4829 25.4573 29.287C25.5385 29.091 25.4454 28.8664 25.2495 28.7852Z" fill="#000088"/>
<path d="M33.9325 24.7878L32.5257 29.0489L32.2209 31.1758L33.0203 29.1814L33.9325 24.7878Z" fill="#000088"/>
<path d="M26.3116 27.1476C26.1433 27.0185 25.9023 27.0502 25.7732 27.2185C25.6441 27.3867 25.6758 27.6278 25.844 27.7569C26.0123 27.886 26.2534 27.8543 26.3825 27.686C26.5116 27.5178 26.4798 27.2767 26.3116 27.1476Z" fill="#000088"/>
<path d="M35.7333 25.5337L33.2716 29.2855L32.4267 31.261L33.715 29.5415L35.7333 25.5337Z" fill="#000088"/>
<path d="M27.7613 25.8407C27.6322 25.6724 27.3911 25.6407 27.2229 25.7698C27.0546 25.8989 27.0229 26.14 27.152 26.3082C27.2811 26.4765 27.5222 26.5082 27.6904 26.3791C27.8587 26.25 27.8904 26.0089 27.7613 25.8407Z" fill="#000088"/>
<path d="M37.2797 26.7203L33.9309 29.7071L32.6034 31.3966L34.2929 30.0691L37.2797 26.7203Z" fill="#000088"/>
<path d="M29.4999 24.9535C29.4187 24.7576 29.1941 24.6645 28.9982 24.7457C28.8022 24.8268 28.7092 25.0515 28.7903 25.2474C28.8715 25.4433 29.0961 25.5364 29.2921 25.4552C29.488 25.3741 29.581 25.1494 29.4999 24.9535Z" fill="#000088"/>
<path d="M38.4663 28.2667L34.4585 30.285L32.739 31.5734L34.7145 30.7284L38.4663 28.2667Z" fill="#000088"/>
<path d="M31.4088 24.5466C31.3812 24.3363 31.1883 24.1883 30.978 24.216C30.7677 24.2437 30.6197 24.4365 30.6474 24.6468C30.6751 24.8571 30.868 25.0051 31.0783 24.9774C31.2885 24.9497 31.4365 24.7568 31.4088 24.5466Z" fill="#000088"/>
<path d="M39.2122 30.0675L34.8186 30.9798L32.8243 31.7792L34.9512 31.4743L39.2122 30.0675Z" fill="#000088"/>
<path d="M33.3581 24.6475C33.3858 24.4372 33.2378 24.2443 33.0275 24.2166C32.8172 24.189 32.6243 24.337 32.5967 24.5472C32.569 24.7575 32.717 24.9504 32.9273 24.9781C33.1375 25.0058 33.3304 24.8577 33.3581 24.6475Z" fill="#000088"/>
<path d="M39.4667 32L34.9867 31.744L32.8533 32L34.9867 32.256L39.4667 32Z" fill="#000088"/>
<path d="M35.2148 25.2496C35.2959 25.0536 35.2029 24.829 35.007 24.7478C34.811 24.6667 34.5864 24.7597 34.5052 24.9557C34.4241 25.1516 34.5171 25.3762 34.7131 25.4574C34.909 25.5385 35.1336 25.4455 35.2148 25.2496Z" fill="#000088"/>
<path d="M39.2122 33.9325L34.9512 32.5258L32.8243 32.2209L34.8186 33.0203L39.2122 33.9325Z" fill="#000088"/>
<path d="M36.8524 26.3116C36.9815 26.1433 36.9498 25.9023 36.7815 25.7732C36.6133 25.644 36.3722 25.6758 36.2431 25.844C36.114 26.0123 36.1457 26.2533 36.314 26.3824C36.4822 26.5116 36.7233 26.4798 36.8524 26.3116Z" fill="#000088"/>
<path d="M38.4663 35.7333L34.7145 33.2716L32.739 32.4266L34.4585 33.715L38.4663 35.7333Z" fill="#000088"/>
<path d="M38.1593 27.7613C38.3276 27.6322 38.3593 27.3911 38.2302 27.2229C38.1011 27.0546 37.8601 27.0229 37.6918 27.152C37.5236 27.2811 37.4918 27.5222 37.6209 27.6904C37.75 27.8587 37.9911 27.8904 38.1593 27.7613Z" fill="#000088"/>
<path d="M37.2797 37.2797L34.2929 33.9308L32.6034 32.6034L33.9309 34.2929L37.2797 37.2797Z" fill="#000088"/>
<path d="M39.0465 29.4999C39.2425 29.4187 39.3355 29.1941 39.2543 28.9982C39.1732 28.8022 38.9486 28.7092 38.7526 28.7903C38.5567 28.8715 38.4636 29.0961 38.5448 29.2921C38.626 29.488 38.8506 29.581 39.0465 29.4999Z" fill="#000088"/>
<path d="M35.7333 38.4663L33.715 34.4585L32.4267 32.739L33.2716 34.7145L35.7333 38.4663Z" fill="#000088"/>
<path d="M39.4535 31.4088C39.6638 31.3812 39.8118 31.1883 39.7841 30.978C39.7564 30.7677 39.5635 30.6197 39.3532 30.6474C39.143 30.6751 38.995 30.868 39.0227 31.0783C39.0503 31.2885 39.2432 31.4365 39.4535 31.4088Z" fill="#000088"/>
<path d="M33.9325 39.2122L33.0203 34.8186L32.2209 32.8242L32.5257 34.9511L33.9325 39.2122Z" fill="#000088"/>
</g>
<defs>
<clipPath id="clip0_66_14057">
<rect width="64" height="64" rx="32" fill="white"/>
</clipPath>
</defs>
</svg>
