<svg width="64" height="64" viewBox="0 0 64 64" fill="none" xmlns="http://www.w3.org/2000/svg">
<g clip-path="url(#clip0_66_15206)">
<path d="M25.6 0H64V64H25.5875L25.6 0Z" fill="#FF0000"/>
<path d="M-7.62753e-07 0H25.6V64H-0.0125008L-7.62753e-07 0Z" fill="#006600"/>
<path fill-rule="evenodd" clip-rule="evenodd" d="M36.725 40.825C32.425 40.7 12.725 28.4 12.6 26.4375L13.675 24.625C15.625 27.4625 35.775 39.425 37.75 39L36.725 40.825Z" fill="#FFFF00" stroke="black" stroke-width="0.0875" stroke-linecap="round" stroke-linejoin="round"/>
<path fill-rule="evenodd" clip-rule="evenodd" d="M13.45 24.375C13.0625 25.4125 18.5875 28.825 25.2375 32.875C31.8875 36.9125 37.6125 39.4125 38.05 39.0625L38.2375 38.7C38.1625 38.825 37.9625 38.8625 37.6625 38.775C35.8625 38.25 31.175 36.1 25.375 32.5875C19.575 29.075 14.525 25.825 13.75 24.45C13.6861 24.3222 13.656 24.1802 13.6625 24.0375H13.6375L13.475 24.325L13.45 24.375ZM36.825 40.875C36.75 41.0125 36.6125 41.0125 36.3625 41C34.75 40.8125 29.8625 38.4375 24.1125 34.9875C17.3875 30.9625 11.8375 27.3 12.45 26.35L12.6125 26.05L12.6375 26.0625C12.1 27.6875 23.5875 34.25 24.2625 34.675C30.9 38.8 36.5125 41.2 37.0125 40.575L36.825 40.875Z" fill="#FFFF00" stroke="black" stroke-width="0.0875" stroke-linecap="round" stroke-linejoin="round"/>
<path fill-rule="evenodd" clip-rule="evenodd" d="M25.625 27.625C29.9125 27.5875 35.225 27.0375 38.275 25.825L37.625 24.75C35.8125 25.75 30.4875 26.4125 25.5875 26.5C19.7875 26.45 15.7 25.9125 13.65 24.5375L13.025 25.675C16.8 27.2625 20.65 27.6125 25.625 27.625Z" fill="#FFFF00" stroke="black" stroke-width="0.0875" stroke-linecap="round" stroke-linejoin="round"/>
<path fill-rule="evenodd" clip-rule="evenodd" d="M38.4625 25.85C38.35 26.0125 36.3625 26.7 33.425 27.2C30.8349 27.5885 28.2191 27.7807 25.6 27.775C23.0921 27.7862 20.5864 27.6275 18.1 27.3C15.0375 26.8125 13.4375 26.1375 12.85 25.9L13 25.6125C14.6623 26.2677 16.3945 26.729 18.1625 26.9875C20.6283 27.31 23.1132 27.4646 25.6 27.45C28.1982 27.4517 30.7929 27.2595 33.3625 26.875C36.3625 26.3875 38.0125 25.7625 38.2375 25.475L38.4625 25.85ZM37.875 24.75C37.55 25 35.925 25.5875 33.075 26.0375C30.6117 26.3911 28.1261 26.5666 25.6375 26.5625C23.2378 26.5807 20.84 26.4261 18.4625 26.1C15.55 25.725 14.0125 25.0375 13.4625 24.8375L13.625 24.55C14.05 24.775 15.55 25.375 18.5 25.8C20.8666 26.1067 23.2512 26.2529 25.6375 26.2375C28.1053 26.2409 30.5701 26.0654 33.0125 25.7125C35.8875 25.3125 37.4375 24.5875 37.675 24.4L37.875 24.75ZM11.5 32.8C14.15 34.225 20.0125 34.95 25.575 35C30.6375 35 37.2375 34.2125 39.7 32.9L39.625 31.475C38.8625 32.6875 31.8 33.85 25.525 33.8C19.25 33.75 13.425 32.775 11.4875 31.525V32.8" fill="#FFFF00"/>
<path d="M11.5 32.8C14.15 34.225 20.0125 34.95 25.575 35C30.6375 35 37.2375 34.2125 39.7 32.9L39.625 31.475C38.8625 32.6875 31.8 33.85 25.525 33.8C19.25 33.75 13.425 32.775 11.4875 31.525V32.8M38.4625 25.85C38.35 26.0125 36.3625 26.7 33.425 27.2C30.8349 27.5885 28.2191 27.7807 25.6 27.775C23.0921 27.7862 20.5864 27.6275 18.1 27.3C15.0375 26.8125 13.4375 26.1375 12.85 25.9L13 25.6125C14.6623 26.2677 16.3945 26.729 18.1625 26.9875C20.6283 27.31 23.1132 27.4646 25.6 27.45C28.1982 27.4517 30.7929 27.2595 33.3625 26.875C36.3625 26.3875 38.0125 25.7625 38.2375 25.475L38.4625 25.85ZM37.875 24.75C37.55 25 35.925 25.5875 33.075 26.0375C30.6117 26.3911 28.1261 26.5666 25.6375 26.5625C23.2378 26.5807 20.84 26.4261 18.4625 26.1C15.55 25.725 14.0125 25.0375 13.4625 24.8375L13.625 24.55C14.05 24.775 15.55 25.375 18.5 25.8C20.8666 26.1067 23.2512 26.2529 25.6375 26.2375C28.1053 26.2409 30.5701 26.0654 33.0125 25.7125C35.8875 25.3125 37.4375 24.5875 37.675 24.4L37.875 24.75Z" stroke="black" stroke-width="0.0875" stroke-linecap="round" stroke-linejoin="round"/>
<path fill-rule="evenodd" clip-rule="evenodd" d="M39.8375 32.6V32.9375C39.4625 33.3875 37.1375 34.0625 34.225 34.525C31.3401 34.9441 28.4276 35.1446 25.5125 35.125C22.0875 35.125 19.3625 34.875 17.2375 34.55C15.1986 34.3183 13.2058 33.7832 11.325 32.9625V32.5625C12.625 33.425 16.1125 34.05 17.2875 34.2375C19.3875 34.5625 22.1 34.8 25.5125 34.8C29.1 34.8 31.975 34.55 34.175 34.2125C36.275 33.9125 39.25 33.125 39.8375 32.6ZM39.8375 31.3875V31.7375C39.4625 32.175 37.1375 32.85 34.225 33.3125C31.3401 33.7316 28.4276 33.9321 25.5125 33.9125C22.0875 33.9125 19.3625 33.6625 17.25 33.35C15.2063 33.1151 13.2092 32.5758 11.325 31.75V31.35C12.625 32.2125 16.1125 32.85 17.2875 33.025C19.4 33.35 22.1125 33.6 25.5125 33.6C29.1 33.6 31.975 33.35 34.175 33C36.275 32.7 39.25 31.9125 39.8375 31.3875ZM25.5625 40.575C19.4875 40.5375 14.275 38.925 13.175 38.65L13.975 39.9C15.9125 40.725 21 41.95 25.625 41.8125C30.25 41.675 34.2875 41.3125 37.125 39.9375L37.95 38.625C36.0125 39.5375 29.4125 40.575 25.575 40.575" fill="#FFFF00"/>
<path d="M25.5625 40.575C19.4875 40.5375 14.275 38.925 13.175 38.65L13.975 39.9C15.9125 40.725 21 41.95 25.625 41.8125C30.25 41.675 34.2875 41.3125 37.125 39.9375L37.95 38.625C36.0125 39.5375 29.4125 40.575 25.575 40.575M39.8375 32.6V32.9375C39.4625 33.3875 37.1375 34.0625 34.225 34.525C31.3401 34.9441 28.4276 35.1446 25.5125 35.125C22.0875 35.125 19.3625 34.875 17.2375 34.55C15.1986 34.3183 13.2058 33.7832 11.325 32.9625V32.5625C12.625 33.425 16.1125 34.05 17.2875 34.2375C19.3875 34.5625 22.1 34.8 25.5125 34.8C29.1 34.8 31.975 34.55 34.175 34.2125C36.275 33.9125 39.25 33.125 39.8375 32.6ZM39.8375 31.3875V31.7375C39.4625 32.175 37.1375 32.85 34.225 33.3125C31.3401 33.7316 28.4276 33.9321 25.5125 33.9125C22.0875 33.9125 19.3625 33.6625 17.25 33.35C15.2063 33.1151 13.2092 32.5758 11.325 31.75V31.35C12.625 32.2125 16.1125 32.85 17.2875 33.025C19.4 33.35 22.1125 33.6 25.5125 33.6C29.1 33.6 31.975 33.35 34.175 33C36.275 32.7 39.25 31.9125 39.8375 31.3875Z" stroke="black" stroke-width="0.0875" stroke-linecap="round" stroke-linejoin="round"/>
<path fill-rule="evenodd" clip-rule="evenodd" d="M37.4375 39.6375C37.3157 39.823 37.1907 40.0064 37.0625 40.1875C35.6441 40.658 34.1948 41.0298 32.725 41.3C30.3664 41.7339 27.9732 41.9515 25.575 41.95C20.1875 41.875 15.775 40.825 13.7 39.925L13.525 39.6375L13.5625 39.5875L13.8375 39.7C17.6327 40.9576 21.6019 41.6114 25.6 41.6375C28.1 41.65 30.6 41.35 32.6125 41C35.7125 40.375 36.9625 39.9125 37.35 39.7L37.4375 39.6375ZM38.15 38.4625H38.1625C38.072 38.6215 37.9803 38.7798 37.8875 38.9375C37.175 39.1875 35.225 39.7625 32.3875 40.1625C30.5125 40.4125 29.35 40.6625 25.6375 40.7375C21.3838 40.6916 17.1567 40.0607 13.075 38.8625L12.925 38.55C17.0709 39.6878 21.3397 40.3174 25.6375 40.425C29.0375 40.35 30.4875 40.1 32.3375 39.8375C35.65 39.3375 37.3125 38.7875 37.8125 38.625C37.8086 38.6165 37.8045 38.6082 37.8 38.6L38.15 38.4625Z" fill="#FFFF00" stroke="black" stroke-width="0.075" stroke-linecap="round" stroke-linejoin="round"/>
<path fill-rule="evenodd" clip-rule="evenodd" d="M38.225 31.675C38.25 35.675 36.2 39.275 34.55 40.8625C32.1263 43.2198 28.8931 44.5613 25.5125 44.6125C21.475 44.6875 17.675 42.05 16.65 40.9C14.65 38.6375 13.025 35.775 12.975 31.9C13.225 27.525 14.9375 24.4875 17.425 22.4C19.832 20.4201 22.8584 19.3494 25.975 19.375C29.15 19.4625 32.875 21.025 35.4375 24.125C37.1125 26.15 37.85 28.35 38.225 31.6875V31.675ZM25.55 17.975C33.3 17.975 39.675 24.2875 39.675 32.0125C39.6519 35.7435 38.1535 39.3138 35.5071 41.9439C32.8606 44.5739 29.2811 46.0501 25.55 46.05C17.8 46.05 11.475 39.75 11.475 32.0125C11.475 24.275 17.8 17.975 25.55 17.975Z" fill="#FFFF00" stroke="black" stroke-width="0.0875" stroke-linecap="round" stroke-linejoin="round"/>
<path fill-rule="evenodd" clip-rule="evenodd" d="M25.5875 17.925C33.3375 17.925 39.6625 24.2625 39.6625 32.0125C39.6625 39.7625 33.3375 46.1 25.5875 46.1C21.8521 46.0901 18.2728 44.601 15.6327 41.9585C12.9925 39.316 11.5066 35.7354 11.5 32C11.5099 28.2668 12.9973 24.6893 15.6371 22.0496C18.2768 19.4098 21.8543 17.9224 25.5875 17.9125V17.925ZM11.8125 32.0125C11.8125 39.5875 18.0375 45.7875 25.5875 45.7875C33.1375 45.7875 39.35 39.5875 39.35 32.0125C39.35 24.4375 33.1375 18.25 25.5875 18.25C21.9404 18.2632 18.4462 19.717 15.866 22.2947C13.2859 24.8725 11.829 28.3654 11.8125 32.0125Z" fill="#FFFF00" stroke="black" stroke-width="0.0875" stroke-linecap="round" stroke-linejoin="round"/>
<path fill-rule="evenodd" clip-rule="evenodd" d="M25.6 19.1C32.6625 19.1 38.4875 24.9125 38.4875 32C38.4875 39.1 32.6625 44.9 25.6 44.9C22.1806 44.8901 18.9039 43.5282 16.4848 41.1115C14.0657 38.6948 12.7007 35.4194 12.6875 32C12.6875 24.9125 18.5125 19.1 25.5875 19.1H25.6ZM13 32C13 38.925 18.6875 44.5875 25.6 44.5875C32.5 44.5875 38.1875 38.925 38.1875 32C38.1875 25.075 32.5 19.4125 25.5875 19.4125C18.675 19.4125 13 25.075 13 32Z" fill="#FFFF00" stroke="black" stroke-width="0.0875" stroke-linecap="round" stroke-linejoin="round"/>
<path fill-rule="evenodd" clip-rule="evenodd" d="M26.1625 17.875H24.95V46.175H26.1625V17.875Z" fill="#FFFF00" stroke="black" stroke-width="0.0875" stroke-linecap="round" stroke-linejoin="round"/>
<path fill-rule="evenodd" clip-rule="evenodd" d="M26.0375 17.7125H26.35V46.3375H26.0375V17.7125ZM24.8375 17.7125H25.15V46.3375H24.8375V17.7125Z" fill="#FFFF00" stroke="black" stroke-width="0.0875" stroke-linecap="round" stroke-linejoin="round"/>
<path fill-rule="evenodd" clip-rule="evenodd" d="M39.675 32.5625V31.5L38.825 30.7125L33.9875 29.425L27.0125 28.7125L18.6375 29.1375L12.65 30.5625L11.45 31.4625V32.5L14.5 31.125L21.75 30H28.725L33.85 30.5625L37.4 31.425L39.675 32.5625Z" fill="#FFFF00" stroke="black" stroke-width="0.0875" stroke-linecap="round" stroke-linejoin="round"/>
<path fill-rule="evenodd" clip-rule="evenodd" d="M25.5875 29.8375C28.6436 29.825 31.6943 30.097 34.7 30.65C37.3375 31.175 39.2 31.8375 39.825 32.575V32.95C39.075 32.025 36.575 31.35 34.6375 30.95C32.1 30.4625 28.8875 30.15 25.5875 30.15C22.0875 30.15 18.8375 30.4875 16.3375 30.975C14.3375 31.375 11.6625 32.1625 11.325 32.95V32.575C11.5125 32.025 13.5 31.2125 16.3 30.65C19.3643 30.0941 22.4733 29.8221 25.5875 29.8375ZM25.5875 28.625C28.6477 28.6132 31.7025 28.8852 34.7125 29.4375C37.3375 29.9625 39.2125 30.625 39.8375 31.375V31.7375C39.075 30.8125 36.5625 30.1375 34.6375 29.75C32.1 29.25 28.8875 28.9375 25.5875 28.9375C22.4937 28.9279 19.4055 29.2041 16.3625 29.7625C14.425 30.1375 11.6375 30.9625 11.325 31.7375V31.3625C11.5125 30.825 13.55 29.9875 16.3 29.45C19.3639 28.8899 22.4729 28.6137 25.5875 28.625ZM25.525 22.4625C30.7625 22.4375 35.3375 23.2 37.425 24.275L38.1875 25.5875C36.375 24.6125 31.4375 23.5875 25.525 23.75C20.7125 23.775 15.575 24.275 12.9875 25.65L13.9 24.125C16.025 23.025 21.025 22.475 25.525 22.4625Z" fill="#FFFF00" stroke="black" stroke-width="0.0875" stroke-linecap="round" stroke-linejoin="round"/>
<path fill-rule="evenodd" clip-rule="evenodd" d="M25.5875 23.55C28.5875 23.55 31.4625 23.7125 33.7625 24.125C35.9 24.525 37.95 25.125 38.2375 25.45L38.4625 25.85C37.75 25.3875 35.9875 24.8625 33.7125 24.4375C31.0262 24.0096 28.3071 23.8214 25.5875 23.875C22.2125 23.875 19.5875 24.0375 17.3375 24.4375C14.9625 24.875 13.3125 25.5125 12.9 25.8125L13.125 25.4C13.9125 24.9875 15.175 24.5 17.2875 24.125C19.6125 23.7 22.25 23.575 25.5875 23.55ZM25.5875 22.35C28.2275 22.3085 30.8663 22.4925 33.475 22.9C35.2125 23.2375 36.925 23.7625 37.5625 24.225L37.8875 24.75C37.325 24.125 35.2125 23.5375 33.3375 23.2125C31.1625 22.8375 28.45 22.6875 25.5875 22.6625C22.5875 22.6625 19.8125 22.85 17.6625 23.2375C15.6125 23.6375 14.2875 24.1 13.725 24.4625L14.0125 24.0125C14.7875 23.6125 16.0375 23.2375 17.6125 22.925C19.775 22.5375 22.575 22.35 25.5875 22.35ZM32.5875 37.8625C30.2763 37.464 27.9323 37.2882 25.5875 37.3375C16.85 37.4375 14.0375 39.125 13.6875 39.6375L13.0375 38.575C15.25 36.9625 20 36.0625 25.625 36.15C28.5375 36.2 31.05 36.4 33.175 36.8L32.575 37.8625" fill="#FFFF00"/>
<path d="M32.5875 37.8625C30.2763 37.464 27.9323 37.2882 25.5875 37.3375C16.85 37.4375 14.0375 39.125 13.6875 39.6375L13.0375 38.575C15.25 36.9625 20 36.0625 25.625 36.15C28.5375 36.2 31.05 36.4 33.175 36.8L32.575 37.8625M25.5875 23.55C28.5875 23.55 31.4625 23.7125 33.7625 24.125C35.9 24.525 37.95 25.125 38.2375 25.45L38.4625 25.85C37.75 25.3875 35.9875 24.8625 33.7125 24.4375C31.0262 24.0096 28.3072 23.8214 25.5875 23.875C22.2125 23.875 19.5875 24.0375 17.3375 24.4375C14.9625 24.875 13.3125 25.5125 12.9 25.8125L13.125 25.4C13.9125 24.9875 15.175 24.5 17.2875 24.125C19.6125 23.7 22.25 23.575 25.5875 23.55ZM25.5875 22.35C28.2275 22.3085 30.8663 22.4925 33.475 22.9C35.2125 23.2375 36.925 23.7625 37.5625 24.225L37.8875 24.75C37.325 24.125 35.2125 23.5375 33.3375 23.2125C31.1625 22.8375 28.45 22.6875 25.5875 22.6625C22.5875 22.6625 19.8125 22.85 17.6625 23.2375C15.6125 23.6375 14.2875 24.1 13.725 24.4625L14.0125 24.0125C14.7875 23.6125 16.0375 23.2375 17.6125 22.925C19.775 22.5375 22.575 22.35 25.5875 22.35Z" stroke="black" stroke-width="0.0875" stroke-linecap="round" stroke-linejoin="round"/>
<path fill-rule="evenodd" clip-rule="evenodd" d="M25.5375 37.1875C27.9625 37.225 30.35 37.3125 32.6625 37.75L32.4875 38.05C30.1969 37.6545 27.8742 37.4745 25.55 37.5125C22.325 37.4875 19.05 37.7875 16.225 38.6C15.325 38.85 13.85 39.425 13.6875 39.9L13.525 39.625C13.575 39.35 14.475 38.7625 16.15 38.3C19.4 37.3625 22.4375 37.2125 25.525 37.175L25.5375 37.1875ZM25.65 35.9625C28.2103 35.9601 30.7659 36.1817 33.2875 36.625L33.1125 36.9375C30.655 36.4879 28.1607 36.2703 25.6625 36.2875C22.425 36.2875 19 36.525 15.875 37.425C14.875 37.725 13.125 38.35 13.075 38.85L12.9125 38.5625C12.95 38.1125 14.45 37.5125 15.8125 37.1125C19.0221 36.273 22.3333 35.8859 25.65 35.9625Z" fill="#FFFF00" stroke="black" stroke-width="0.075" stroke-linecap="round" stroke-linejoin="round"/>
<path fill-rule="evenodd" clip-rule="evenodd" d="M38.05 38.7375L37 40.3625L33.9875 37.6875L26.1625 32.4375L17.35 27.5875L12.7625 26.025L13.7375 24.2125L14.075 24.0375L16.925 24.75L26.3 29.5875L31.7125 33L36.25 36.25L38.1 38.3875L38.05 38.7375Z" fill="#FFFF00" stroke="black" stroke-width="0.0875" stroke-linecap="round" stroke-linejoin="round"/>
<path fill-rule="evenodd" clip-rule="evenodd" d="M12.6 26.0625C13.4125 25.525 19.3125 28.15 25.475 31.875C31.6375 35.6125 37.525 39.825 37 40.625L36.825 40.8875L36.7375 40.95C36.7625 40.95 36.85 40.825 36.7375 40.5375C36.4625 39.675 32.3 36.35 25.3625 32.1625C18.6125 28.1375 12.9875 25.7125 12.425 26.4125L12.6 26.0625ZM38.2625 38.7125C38.7625 37.7125 33.3 33.5875 26.5125 29.575C19.575 25.6375 14.5625 23.325 13.65 24.0125L13.45 24.3875C13.45 24.4 13.45 24.3625 13.5 24.325C13.6625 24.1875 13.9375 24.2 14.0625 24.2C15.6375 24.2125 20.1375 26.275 26.4375 29.9C29.2 31.5 38.1125 37.225 38.075 38.825C38.075 38.9625 38.0875 38.9875 38.0375 39.0625L38.2625 38.7125Z" fill="#FFFF00" stroke="black" stroke-width="0.0875" stroke-linecap="round" stroke-linejoin="round"/>
<path d="M17.1479 33.5589C17.15 34.663 17.3711 35.7556 17.7983 36.7736C18.2255 37.7916 18.8504 38.7147 19.6368 39.4896C20.4136 40.2784 21.3388 40.9056 22.3591 41.3352C23.3794 41.7648 24.4746 41.9883 25.5817 41.9927C27.8222 41.9926 29.9708 41.1024 31.555 39.5181C32.3386 38.7389 32.9606 37.8126 33.3853 36.7925C33.81 35.7723 34.029 34.6782 34.0297 33.5732V22.3091L17.1479 22.2807V33.5589Z" fill="white" stroke="black" stroke-width="0.0995558"/>
<path d="M17.4608 33.5732C17.4638 34.6322 17.6765 35.6801 18.0865 36.6566C18.4966 37.633 19.096 38.5185 19.8501 39.2621C21.3643 40.7842 23.4205 41.6435 25.5675 41.6514C27.7107 41.6526 29.7668 40.8035 31.2848 39.2905C32.0363 38.5458 32.6331 37.6597 33.0407 36.6833C33.4483 35.707 33.6588 34.6596 33.6599 33.6016V22.6505H17.4892V33.5732M30.4315 25.9358V32.8905L30.4172 33.6158C30.422 34.2512 30.2985 34.881 30.0542 35.4675C29.8098 36.054 29.4495 36.5852 28.995 37.0292C28.0906 37.9367 26.8629 38.4483 25.5817 38.4514C24.2448 38.4514 23.0643 37.8825 22.1826 37.0007C21.275 36.0963 20.7635 34.8687 20.7603 33.5874V25.9074L30.4315 25.9358Z" fill="#FF0000"/>
<path d="M17.4608 33.5732C17.4638 34.6322 17.6765 35.6801 18.0865 36.6566C18.4966 37.633 19.096 38.5185 19.8501 39.2621C21.3643 40.7842 23.4205 41.6435 25.5675 41.6514C27.7107 41.6526 29.7668 40.8035 31.2848 39.2905C32.0363 38.5458 32.6331 37.6597 33.0407 36.6833C33.4483 35.707 33.6588 34.6596 33.6599 33.6016V22.6505H17.4892V33.5732M30.4315 25.9358V32.8905L30.4172 33.6158C30.422 34.2512 30.2985 34.881 30.0542 35.4675C29.8098 36.054 29.4495 36.5852 28.995 37.0292C28.0906 37.9367 26.8629 38.4483 25.5817 38.4514C24.2448 38.4514 23.0643 37.8825 22.1826 37.0007C21.275 36.0963 20.7635 34.8687 20.7603 33.5874V25.9074L30.4315 25.9358Z" stroke="black" stroke-width="0.0711113"/>
<path d="M18.5132 25.5091C18.5274 24.7269 19.0821 24.542 19.0821 24.542C19.0963 24.542 19.6937 24.7411 19.6937 25.5234H18.5132" fill="#FFFF00"/>
<path d="M18.0297 24.5562L17.9301 25.4522H18.5274C18.5274 24.7127 19.0963 24.5989 19.0963 24.5989C19.1106 24.5989 19.6652 24.7554 19.6794 25.4522H20.2768L20.163 24.542H18.0297V24.5562ZM17.8874 25.4665H20.3052C20.3479 25.4665 20.3906 25.5091 20.3906 25.566C20.3906 25.6371 20.3479 25.6798 20.3052 25.6798H17.8874C17.8448 25.6798 17.8021 25.6371 17.8021 25.566C17.8021 25.5091 17.8448 25.4665 17.9017 25.4665H17.8874Z" fill="#FFFF00" stroke="black" stroke-width="0.0711113"/>
<path d="M18.7692 25.4522C18.7692 24.9829 19.0963 24.8549 19.0963 24.8549C19.0963 24.8549 19.4234 24.9971 19.4234 25.4522H18.7692ZM17.9443 24.1722H20.2626C20.3052 24.1722 20.3479 24.2291 20.3479 24.286C20.3479 24.3287 20.3052 24.3714 20.2626 24.3714H17.9443C17.9017 24.3714 17.859 24.3287 17.859 24.2718C17.859 24.2291 17.9017 24.1865 17.9443 24.1865V24.1722ZM18.0012 24.3856H20.1914C20.2341 24.3856 20.2768 24.4282 20.2768 24.4851C20.2768 24.542 20.2341 24.5847 20.1914 24.5847H17.987C17.9301 24.5847 17.9017 24.542 17.9017 24.4851C17.9017 24.4282 17.9301 24.3856 17.987 24.3856H18.0012ZM18.7123 22.878H18.883V22.9918H19.011V22.878H19.1959V23.006H19.3239V22.8638H19.4946V23.1482C19.4946 23.2051 19.4661 23.2336 19.4234 23.2336H18.7977C18.755 23.2336 18.7123 23.2051 18.7123 23.1625V22.878ZM19.3666 23.262L19.4092 24.1722H18.7977L18.8403 23.2478H19.3666" fill="#FFFF00"/>
<path d="M19.3666 23.262L19.4092 24.1722H18.7977L18.8403 23.2478H19.3666M18.7692 25.4522C18.7692 24.9829 19.0963 24.8549 19.0963 24.8549C19.0963 24.8549 19.4234 24.9971 19.4234 25.4522H18.7692ZM17.9443 24.1722H20.2626C20.3052 24.1722 20.3479 24.2291 20.3479 24.286C20.3479 24.3287 20.3052 24.3714 20.2626 24.3714H17.9443C17.9017 24.3714 17.859 24.3287 17.859 24.2718C17.859 24.2291 17.9017 24.1865 17.9443 24.1865V24.1722ZM18.0012 24.3856H20.1914C20.2341 24.3856 20.2768 24.4282 20.2768 24.4851C20.2768 24.542 20.2341 24.5847 20.1914 24.5847H17.987C17.9301 24.5847 17.9017 24.542 17.9017 24.4851C17.9017 24.4282 17.9301 24.3856 17.987 24.3856H18.0012ZM18.7123 22.878H18.883V22.9918H19.011V22.878H19.1959V23.006H19.3239V22.8638H19.4946V23.1482C19.4946 23.2051 19.4661 23.2336 19.4234 23.2336H18.7977C18.755 23.2336 18.7123 23.2051 18.7123 23.1625V22.878Z" stroke="black" stroke-width="0.0711113"/>
<path d="M18.627 23.6887V24.1722H18.0581V23.6887H18.627Z" fill="#FFFF00" stroke="black" stroke-width="0.0711113"/>
<path d="M20.1346 23.6887V24.1722H19.5657V23.6887H20.1346Z" fill="#FFFF00" stroke="black" stroke-width="0.0711113"/>
<path d="M17.9586 23.3189H18.1292V23.4611H18.2572V23.3189H18.4279V23.4611H18.5559V23.3189H18.7266V23.6034C18.7266 23.6602 18.6981 23.6887 18.6554 23.6887H18.0439C18.0213 23.6887 17.9995 23.6797 17.9835 23.6637C17.9675 23.6477 17.9586 23.626 17.9586 23.6034V23.3189Z" fill="#FFFF00" stroke="black" stroke-width="0.0711113"/>
<path d="M19.4661 23.3189H19.6368V23.4611H19.7648V23.3189H19.9354V23.4611H20.0634V23.3189H20.2341V23.6034C20.2341 23.6602 20.2057 23.6887 20.163 23.6887H19.5514C19.5288 23.6887 19.5071 23.6797 19.4911 23.6637C19.4751 23.6477 19.4661 23.626 19.4661 23.6034V23.3189Z" fill="#FFFF00" stroke="black" stroke-width="0.0711113"/>
<path d="M19.0394 23.5465C19.0394 23.4611 19.1674 23.4611 19.1674 23.5465V23.774H19.0394V23.5465Z" fill="black"/>
<path d="M18.2857 23.8593C18.2857 23.774 18.3994 23.774 18.3994 23.8593V24.03H18.2857V23.8593Z" fill="black"/>
<path d="M19.7932 23.8593C19.7932 23.774 19.907 23.774 19.907 23.8593V24.03H19.7932V23.8593Z" fill="black"/>
<path d="M18.5132 32.094C18.5274 31.3118 19.0821 31.1269 19.0821 31.1269C19.0963 31.1269 19.6937 31.326 19.6937 32.1083H18.5132" fill="#FFFF00"/>
<path d="M18.0297 31.1411L17.9301 32.0371H18.5274C18.5274 31.2976 19.0963 31.1838 19.0963 31.1838C19.1106 31.1838 19.6652 31.3403 19.6794 32.0371H20.2768L20.163 31.1269H18.0297V31.1411ZM17.8874 32.0514H20.3052C20.3479 32.0514 20.3906 32.094 20.3906 32.1509C20.3906 32.222 20.3479 32.2647 20.3052 32.2647H17.8874C17.8448 32.2647 17.8021 32.222 17.8021 32.1509C17.8021 32.094 17.8448 32.0514 17.9017 32.0514H17.8874Z" fill="#FFFF00" stroke="black" stroke-width="0.0711113"/>
<path d="M18.7692 32.0371C18.7692 31.5678 19.0963 31.4398 19.0963 31.4398C19.0963 31.4398 19.4234 31.582 19.4234 32.0371H18.7692ZM17.9443 30.7571H20.2626C20.3052 30.7571 20.3479 30.814 20.3479 30.8709C20.3479 30.9136 20.3052 30.9563 20.2626 30.9563H17.9443C17.9017 30.9563 17.859 30.9136 17.859 30.8567C17.859 30.814 17.9017 30.7714 17.9443 30.7714V30.7571ZM18.0012 30.9705H20.1914C20.2341 30.9705 20.2768 31.0131 20.2768 31.07C20.2768 31.1269 20.2341 31.1696 20.1914 31.1696H17.987C17.9301 31.1696 17.9017 31.1269 17.9017 31.07C17.9017 31.0131 17.9301 30.9705 17.987 30.9705H18.0012ZM18.7123 29.4629H18.883V29.5767H19.011V29.4629H19.1959V29.5909H19.3239V29.4487H19.4946V29.7331C19.4946 29.79 19.4661 29.8185 19.4234 29.8185H18.7977C18.755 29.8185 18.7123 29.79 18.7123 29.7474V29.4629ZM19.3666 29.8469L19.4092 30.7571H18.7977L18.8403 29.8327H19.3666" fill="#FFFF00"/>
<path d="M19.3666 29.8469L19.4092 30.7571H18.7977L18.8403 29.8327H19.3666M18.7692 32.0371C18.7692 31.5678 19.0963 31.4398 19.0963 31.4398C19.0963 31.4398 19.4234 31.582 19.4234 32.0371H18.7692ZM17.9443 30.7571H20.2626C20.3052 30.7571 20.3479 30.814 20.3479 30.8709C20.3479 30.9136 20.3052 30.9563 20.2626 30.9563H17.9443C17.9017 30.9563 17.859 30.9136 17.859 30.8567C17.859 30.814 17.9017 30.7714 17.9443 30.7714V30.7571ZM18.0012 30.9705H20.1914C20.2341 30.9705 20.2768 31.0131 20.2768 31.07C20.2768 31.1269 20.2341 31.1696 20.1914 31.1696H17.987C17.9301 31.1696 17.9017 31.1269 17.9017 31.07C17.9017 31.0131 17.9301 30.9705 17.987 30.9705H18.0012ZM18.7123 29.4629H18.883V29.5767H19.011V29.4629H19.1959V29.5909H19.3239V29.4487H19.4946V29.7331C19.4946 29.79 19.4661 29.8185 19.4234 29.8185H18.7977C18.755 29.8185 18.7123 29.79 18.7123 29.7474V29.4629Z" stroke="black" stroke-width="0.0711113"/>
<path d="M18.627 30.2736V30.7571H18.0581V30.2736H18.627Z" fill="#FFFF00" stroke="black" stroke-width="0.0711113"/>
<path d="M20.1346 30.2736V30.7571H19.5657V30.2736H20.1346Z" fill="#FFFF00" stroke="black" stroke-width="0.0711113"/>
<path d="M17.9586 29.9038H18.1292V30.046H18.2572V29.9038H18.4279V30.046H18.5559V29.9038H18.7266V30.1883C18.7266 30.2451 18.6981 30.2736 18.6554 30.2736H18.0439C18.0213 30.2736 17.9995 30.2646 17.9835 30.2486C17.9675 30.2326 17.9586 30.2109 17.9586 30.1883V29.9038Z" fill="#FFFF00" stroke="black" stroke-width="0.0711113"/>
<path d="M19.4661 29.9038H19.6368V30.046H19.7648V29.9038H19.9354V30.046H20.0634V29.9038H20.2341V30.1883C20.2341 30.2451 20.2057 30.2736 20.163 30.2736H19.5514C19.5288 30.2736 19.5071 30.2646 19.4911 30.2486C19.4751 30.2326 19.4661 30.2109 19.4661 30.1883V29.9038Z" fill="#FFFF00" stroke="black" stroke-width="0.0711113"/>
<path d="M19.0394 30.1314C19.0394 30.046 19.1674 30.046 19.1674 30.1314V30.3589H19.0394V30.1314Z" fill="black"/>
<path d="M18.2857 30.4442C18.2857 30.3589 18.3994 30.3589 18.3994 30.4442V30.6149H18.2857V30.4442Z" fill="black"/>
<path d="M19.7932 30.4442C19.7932 30.3589 19.907 30.3589 19.907 30.4442V30.6149H19.7932V30.4442Z" fill="black"/>
<path d="M21.0799 38.9569C20.5349 38.3957 20.7945 37.8718 20.7945 37.8718C20.8045 37.8617 21.3667 37.5782 21.9218 38.1294L21.09 38.967" fill="#FFFF00"/>
<path d="M20.063 38.6286L20.6286 39.3306L21.0495 38.9068C20.5248 38.3856 20.8449 37.9018 20.8449 37.9018C20.8549 37.8917 21.3568 37.6084 21.8613 38.0893L22.2822 37.6655L21.5561 37.1048L20.0529 38.6186L20.063 38.6286ZM20.6087 39.3709L22.3123 37.6553C22.3424 37.625 22.4027 37.6248 22.4431 37.6649C22.4935 37.715 22.4938 37.7754 22.4637 37.8056L20.76 39.5212C20.73 39.5515 20.6696 39.5517 20.6192 39.5016C20.5788 39.4615 20.5786 39.4012 20.6187 39.3608L20.6087 39.3709Z" fill="#FFFF00" stroke="black" stroke-width="0.0711113"/>
<path d="M21.2199 38.7352C20.8869 38.4045 21.0265 38.0822 21.0265 38.0822C21.0265 38.0822 21.358 37.9503 21.6809 38.271L21.2199 38.7352ZM19.7304 38.4186L21.3639 36.7736C21.394 36.7434 21.4644 36.7532 21.5048 36.7933C21.535 36.8233 21.5353 36.8837 21.5052 36.9139L19.8717 38.5589C19.8416 38.5892 19.7813 38.5894 19.7409 38.5493C19.7106 38.5192 19.7104 38.4589 19.7405 38.4286L19.7304 38.4186ZM19.9219 38.5285L21.4652 36.9744C21.4952 36.9441 21.5556 36.9439 21.5959 36.984C21.6363 37.0241 21.6365 37.0844 21.6065 37.1147L20.0531 38.6789C20.013 38.7193 19.9627 38.7094 19.9224 38.6693C19.882 38.6292 19.8718 38.579 19.9118 38.5386L19.9219 38.5285ZM19.3532 36.9617L19.4735 36.8406L19.5542 36.9208L19.6444 36.8299L19.5637 36.7498L19.694 36.6186L19.7848 36.7088L19.875 36.6179L19.7741 36.5177L19.8943 36.3966L20.0961 36.597C20.1365 36.6371 20.1367 36.6774 20.1066 36.7076L19.6656 37.1517C19.6356 37.1819 19.5853 37.1922 19.5551 37.1621L19.3532 36.9617ZM20.0867 36.768L20.7626 37.3791L20.3317 37.8131L19.7058 37.1314L20.0766 36.758" fill="#FFFF00"/>
<path d="M20.0867 36.768L20.7626 37.3791L20.3317 37.8131L19.7058 37.1314L20.0766 36.758M21.2199 38.7352C20.8869 38.4045 21.0265 38.0822 21.0265 38.0822C21.0265 38.0822 21.358 37.9503 21.6809 38.271L21.2199 38.7352ZM19.7304 38.4186L21.3639 36.7736C21.394 36.7434 21.4644 36.7532 21.5048 36.7933C21.535 36.8233 21.5353 36.8837 21.5052 36.9139L19.8717 38.5589C19.8416 38.5892 19.7813 38.5894 19.7409 38.5493C19.7106 38.5192 19.7104 38.4589 19.7405 38.4286L19.7304 38.4186ZM19.9219 38.5285L21.4652 36.9744C21.4952 36.9441 21.5556 36.9439 21.5959 36.984C21.6363 37.0241 21.6365 37.0844 21.6065 37.1147L20.0531 38.6789C20.013 38.7193 19.9627 38.7094 19.9224 38.6693C19.882 38.6292 19.8718 38.579 19.9118 38.5386L19.9219 38.5285ZM19.3532 36.9617L19.4735 36.8406L19.5542 36.9208L19.6444 36.8299L19.5637 36.7498L19.694 36.6186L19.7848 36.7088L19.875 36.6179L19.7741 36.5177L19.8943 36.3966L20.0961 36.597C20.1365 36.6371 20.1367 36.6774 20.1066 36.7076L19.6656 37.1517C19.6356 37.1819 19.5853 37.1922 19.5551 37.1621L19.3532 36.9617Z" stroke="black" stroke-width="0.0711113"/>
<path d="M19.8683 37.5935L20.2114 37.9342L19.8106 38.3379L19.4675 37.9971L19.8683 37.5935Z" fill="#FFFF00" stroke="black" stroke-width="0.0711113"/>
<path d="M20.9306 36.5237L21.2737 36.8645L20.8729 37.2681L20.5297 36.9274L20.9306 36.5237Z" fill="#FFFF00" stroke="black" stroke-width="0.0711113"/>
<path d="M19.1349 37.8072L19.2552 37.6861L19.3561 37.7863L19.4463 37.6955L19.3454 37.5953L19.4656 37.4742L19.5666 37.5744L19.6567 37.4836L19.5558 37.3834L19.6761 37.2623L19.8779 37.4627C19.9183 37.5028 19.9184 37.543 19.8884 37.5733L19.4574 38.0072C19.4415 38.0233 19.4198 38.0324 19.3972 38.0324C19.3746 38.0325 19.3528 38.0236 19.3368 38.0077L19.1349 37.8072Z" fill="#FFFF00" stroke="black" stroke-width="0.0711113"/>
<path d="M20.1972 36.7375L20.3175 36.6164L20.4184 36.7166L20.5086 36.6258L20.4077 36.5256L20.5279 36.4045L20.6288 36.5047L20.719 36.4139L20.6181 36.3136L20.7384 36.1925L20.9402 36.393C20.9806 36.4331 20.9807 36.4733 20.9506 36.5036L20.5197 36.9375C20.5038 36.9536 20.4821 36.9626 20.4595 36.9627C20.4368 36.9628 20.4151 36.9539 20.399 36.9379L20.1972 36.7375Z" fill="#FFFF00" stroke="black" stroke-width="0.0711113"/>
<path d="M20.058 37.2006C19.9975 37.1405 20.0877 37.0496 20.1482 37.1098L20.3097 37.2701L20.2195 37.3609L20.058 37.2006Z" fill="black"/>
<path d="M19.7489 37.9559C19.6884 37.8958 19.7685 37.8151 19.8291 37.8752L19.9502 37.9954L19.87 38.0762L19.7489 37.9559Z" fill="black"/>
<path d="M20.8112 36.8862C20.7506 36.8261 20.8308 36.7453 20.8914 36.8055L21.0125 36.9257L20.9323 37.0064L20.8112 36.8862Z" fill="black"/>
<path d="M25.0128 25.5091C25.027 24.7269 25.5817 24.542 25.5817 24.542C25.5959 24.542 26.1932 24.7411 26.1932 25.5234H25.0128" fill="#FFFF00"/>
<path d="M24.5292 24.5562L24.4297 25.4522H25.027C25.027 24.7127 25.5959 24.5989 25.5959 24.5989C25.6101 24.5989 26.1648 24.7554 26.179 25.4522H26.7763L26.6626 24.542H24.5292V24.5562ZM24.387 25.4665H26.8048C26.8475 25.4665 26.8901 25.5091 26.8901 25.566C26.8901 25.6371 26.8475 25.6798 26.8048 25.6798H24.387C24.3443 25.6798 24.3017 25.6371 24.3017 25.566C24.3017 25.5091 24.3443 25.4665 24.4012 25.4665H24.387Z" fill="#FFFF00" stroke="black" stroke-width="0.0711113"/>
<path d="M25.2688 25.4522C25.2688 24.9829 25.5959 24.8549 25.5959 24.8549C25.5959 24.8549 25.923 24.9971 25.923 25.4522H25.2688ZM24.4439 24.1722H26.7621C26.8048 24.1722 26.8475 24.2291 26.8475 24.286C26.8475 24.3287 26.8048 24.3714 26.7621 24.3714H24.4439C24.4012 24.3714 24.3586 24.3287 24.3586 24.2718C24.3586 24.2291 24.4012 24.1865 24.4439 24.1865V24.1722ZM24.5008 24.3856H26.691C26.7337 24.3856 26.7763 24.4282 26.7763 24.4851C26.7763 24.542 26.7337 24.5847 26.691 24.5847H24.4866C24.4297 24.5847 24.4012 24.542 24.4012 24.4851C24.4012 24.4282 24.4297 24.3856 24.4866 24.3856H24.5008ZM25.2119 22.878H25.3826V22.9918H25.5106V22.878H25.6955V23.006H25.8235V22.8638H25.9941V23.1482C25.9941 23.2051 25.9657 23.2336 25.923 23.2336H25.2972C25.2546 23.2336 25.2119 23.2051 25.2119 23.1625V22.878ZM25.8661 23.262L25.9088 24.1722H25.2972L25.3399 23.2478H25.8661" fill="#FFFF00"/>
<path d="M25.8661 23.262L25.9088 24.1722H25.2972L25.3399 23.2478H25.8661M25.2688 25.4522C25.2688 24.9829 25.5959 24.8549 25.5959 24.8549C25.5959 24.8549 25.923 24.9971 25.923 25.4522H25.2688ZM24.4439 24.1722H26.7621C26.8048 24.1722 26.8475 24.2291 26.8475 24.286C26.8475 24.3287 26.8048 24.3714 26.7621 24.3714H24.4439C24.4012 24.3714 24.3586 24.3287 24.3586 24.2718C24.3586 24.2291 24.4012 24.1865 24.4439 24.1865V24.1722ZM24.5008 24.3856H26.691C26.7337 24.3856 26.7763 24.4282 26.7763 24.4851C26.7763 24.542 26.7337 24.5847 26.691 24.5847H24.4866C24.4297 24.5847 24.4012 24.542 24.4012 24.4851C24.4012 24.4282 24.4297 24.3856 24.4866 24.3856H24.5008ZM25.2119 22.878H25.3826V22.9918H25.5106V22.878H25.6955V23.006H25.8235V22.8638H25.9941V23.1482C25.9941 23.2051 25.9657 23.2336 25.923 23.2336H25.2972C25.2546 23.2336 25.2119 23.2051 25.2119 23.1625V22.878Z" stroke="black" stroke-width="0.0711113"/>
<path d="M25.1266 23.6887V24.1722H24.5577V23.6887H25.1266Z" fill="#FFFF00" stroke="black" stroke-width="0.0711113"/>
<path d="M26.6341 23.6887V24.1722H26.0652V23.6887H26.6341Z" fill="#FFFF00" stroke="black" stroke-width="0.0711113"/>
<path d="M24.4581 23.3189H24.6288V23.4611H24.7568V23.3189H24.9275V23.4611H25.0555V23.3189H25.2261V23.6034C25.2261 23.6602 25.1977 23.6887 25.155 23.6887H24.5435C24.5208 23.6887 24.4991 23.6797 24.4831 23.6637C24.4671 23.6477 24.4581 23.626 24.4581 23.6034V23.3189Z" fill="#FFFF00" stroke="black" stroke-width="0.0711113"/>
<path d="M25.9657 23.3189H26.1363V23.4611H26.2643V23.3189H26.435V23.4611H26.563V23.3189H26.7337V23.6034C26.7337 23.6602 26.7052 23.6887 26.6626 23.6887H26.051C26.0284 23.6887 26.0067 23.6797 25.9907 23.6637C25.9747 23.6477 25.9657 23.626 25.9657 23.6034V23.3189Z" fill="#FFFF00" stroke="black" stroke-width="0.0711113"/>
<path d="M25.539 23.5465C25.539 23.4611 25.667 23.4611 25.667 23.5465V23.774H25.539V23.5465Z" fill="black"/>
<path d="M24.7852 23.8593C24.7852 23.774 24.899 23.774 24.899 23.8593V24.03H24.7852V23.8593Z" fill="black"/>
<path d="M26.2928 23.8593C26.2928 23.774 26.4066 23.774 26.4066 23.8593V24.03H26.2928V23.8593Z" fill="black"/>
<path d="M32.6501 25.5091C32.6359 24.7269 32.0812 24.542 32.0812 24.542C32.067 24.542 31.4697 24.7411 31.4697 25.5234H32.6501" fill="#FFFF00"/>
<path d="M33.1337 24.5562L33.2332 25.4522H32.6359C32.6359 24.7127 32.067 24.5989 32.067 24.5989C32.0528 24.5989 31.4981 24.7554 31.4839 25.4522H30.8866L31.0003 24.542H33.1337V24.5562ZM33.2759 25.4665H30.8581C30.8155 25.4665 30.7728 25.5091 30.7728 25.566C30.7728 25.6371 30.8155 25.6798 30.8581 25.6798H33.2759C33.3186 25.6798 33.3612 25.6371 33.3612 25.566C33.3612 25.5091 33.3186 25.4665 33.2617 25.4665H33.2759Z" fill="#FFFF00" stroke="black" stroke-width="0.0711113"/>
<path d="M32.3941 25.4522C32.3941 24.9829 32.067 24.8549 32.067 24.8549C32.067 24.8549 31.7399 24.9971 31.7399 25.4522H32.3941ZM33.219 24.1722H30.9008C30.8581 24.1722 30.8155 24.2291 30.8155 24.286C30.8155 24.3287 30.8581 24.3714 30.9008 24.3714H33.219C33.2617 24.3714 33.3044 24.3287 33.3044 24.2718C33.3044 24.2291 33.2617 24.1865 33.219 24.1865V24.1722ZM33.1621 24.3856H30.9719C30.9292 24.3856 30.8866 24.4282 30.8866 24.4851C30.8866 24.542 30.9292 24.5847 30.9719 24.5847H33.1764C33.2332 24.5847 33.2617 24.542 33.2617 24.4851C33.2617 24.4282 33.2332 24.3856 33.1764 24.3856H33.1621ZM32.451 22.878H32.2804V22.9918H32.1524V22.878H31.9675V23.006H31.8395V22.8638H31.6688V23.1482C31.6688 23.2051 31.6972 23.2336 31.7399 23.2336H32.3657C32.4084 23.2336 32.451 23.2051 32.451 23.1625V22.878ZM31.7968 23.262L31.7541 24.1722H32.3657L32.323 23.2478H31.7968" fill="#FFFF00"/>
<path d="M31.7968 23.262L31.7541 24.1722H32.3657L32.323 23.2478H31.7968M32.3941 25.4522C32.3941 24.9829 32.067 24.8549 32.067 24.8549C32.067 24.8549 31.7399 24.9971 31.7399 25.4522H32.3941ZM33.219 24.1722H30.9008C30.8581 24.1722 30.8155 24.2291 30.8155 24.286C30.8155 24.3287 30.8581 24.3714 30.9008 24.3714H33.219C33.2617 24.3714 33.3044 24.3287 33.3044 24.2718C33.3044 24.2291 33.2617 24.1865 33.219 24.1865V24.1722ZM33.1621 24.3856H30.9719C30.9292 24.3856 30.8866 24.4282 30.8866 24.4851C30.8866 24.542 30.9292 24.5847 30.9719 24.5847H33.1764C33.2332 24.5847 33.2617 24.542 33.2617 24.4851C33.2617 24.4282 33.2332 24.3856 33.1764 24.3856H33.1621ZM32.451 22.878H32.2804V22.9918H32.1524V22.878H31.9675V23.006H31.8395V22.8638H31.6688V23.1482C31.6688 23.2051 31.6972 23.2336 31.7399 23.2336H32.3657C32.4084 23.2336 32.451 23.2051 32.451 23.1625V22.878Z" stroke="black" stroke-width="0.0711113"/>
<path d="M32.5364 23.6887V24.1722H33.1052V23.6887H32.5364Z" fill="#FFFF00" stroke="black" stroke-width="0.0711113"/>
<path d="M31.0288 23.6887V24.1722H31.5977V23.6887H31.0288Z" fill="#FFFF00" stroke="black" stroke-width="0.0711113"/>
<path d="M33.2048 23.3189H33.0341V23.4611H32.9061V23.3189H32.7355V23.4611H32.6075V23.3189H32.4368V23.6034C32.4368 23.6602 32.4652 23.6887 32.5079 23.6887H33.1195C33.1421 23.6887 33.1638 23.6797 33.1798 23.6637C33.1958 23.6477 33.2048 23.626 33.2048 23.6034V23.3189Z" fill="#FFFF00" stroke="black" stroke-width="0.0711113"/>
<path d="M31.6972 23.3189H31.5266V23.4611H31.3986V23.3189H31.2279V23.4611H31.0999V23.3189H30.9292V23.6034C30.9292 23.6602 30.9577 23.6887 31.0004 23.6887H31.6119C31.6345 23.6887 31.6562 23.6797 31.6722 23.6637C31.6883 23.6477 31.6972 23.626 31.6972 23.6034V23.3189Z" fill="#FFFF00" stroke="black" stroke-width="0.0711113"/>
<path d="M32.1239 23.5465C32.1239 23.4611 31.9959 23.4611 31.9959 23.5465V23.774H32.1239V23.5465Z" fill="black"/>
<path d="M32.8777 23.8593C32.8777 23.774 32.7639 23.774 32.7639 23.8593V24.03H32.8777V23.8593Z" fill="black"/>
<path d="M31.3701 23.8593C31.3701 23.774 31.2564 23.774 31.2564 23.8593V24.03H31.3701V23.8593Z" fill="black"/>
<path d="M32.6501 32.094C32.6359 31.3118 32.0812 31.1269 32.0812 31.1269C32.067 31.1269 31.4697 31.326 31.4697 32.1083H32.6501" fill="#FFFF00"/>
<path d="M33.1337 31.1411L33.2332 32.0371H32.6359C32.6359 31.2976 32.067 31.1838 32.067 31.1838C32.0528 31.1838 31.4981 31.3403 31.4839 32.0371H30.8866L31.0003 31.1269H33.1337V31.1411ZM33.2759 32.0514H30.8581C30.8155 32.0514 30.7728 32.094 30.7728 32.1509C30.7728 32.222 30.8155 32.2647 30.8581 32.2647H33.2759C33.3186 32.2647 33.3612 32.222 33.3612 32.1509C33.3612 32.094 33.3186 32.0514 33.2617 32.0514H33.2759Z" fill="#FFFF00" stroke="black" stroke-width="0.0711113"/>
<path d="M32.3941 32.0371C32.3941 31.5678 32.067 31.4398 32.067 31.4398C32.067 31.4398 31.7399 31.582 31.7399 32.0371H32.3941ZM33.219 30.7571H30.9008C30.8581 30.7571 30.8155 30.814 30.8155 30.8709C30.8155 30.9136 30.8581 30.9563 30.9008 30.9563H33.219C33.2617 30.9563 33.3044 30.9136 33.3044 30.8567C33.3044 30.814 33.2617 30.7714 33.219 30.7714V30.7571ZM33.1621 30.9705H30.9719C30.9292 30.9705 30.8866 31.0131 30.8866 31.07C30.8866 31.1269 30.9292 31.1696 30.9719 31.1696H33.1764C33.2332 31.1696 33.2617 31.1269 33.2617 31.07C33.2617 31.0131 33.2332 30.9705 33.1764 30.9705H33.1621ZM32.451 29.4629H32.2804V29.5767H32.1524V29.4629H31.9675V29.5909H31.8395V29.4487H31.6688V29.7331C31.6688 29.79 31.6972 29.8185 31.7399 29.8185H32.3657C32.4084 29.8185 32.451 29.79 32.451 29.7474V29.4629ZM31.7968 29.8469L31.7541 30.7571H32.3657L32.323 29.8327H31.7968" fill="#FFFF00"/>
<path d="M31.7968 29.8469L31.7541 30.7571H32.3657L32.323 29.8327H31.7968M32.3941 32.0371C32.3941 31.5678 32.067 31.4398 32.067 31.4398C32.067 31.4398 31.7399 31.582 31.7399 32.0371H32.3941ZM33.219 30.7571H30.9008C30.8581 30.7571 30.8155 30.814 30.8155 30.8709C30.8155 30.9136 30.8581 30.9563 30.9008 30.9563H33.219C33.2617 30.9563 33.3044 30.9136 33.3044 30.8567C33.3044 30.814 33.2617 30.7714 33.219 30.7714V30.7571ZM33.1621 30.9705H30.9719C30.9292 30.9705 30.8866 31.0131 30.8866 31.07C30.8866 31.1269 30.9292 31.1696 30.9719 31.1696H33.1764C33.2332 31.1696 33.2617 31.1269 33.2617 31.07C33.2617 31.0131 33.2332 30.9705 33.1764 30.9705H33.1621ZM32.451 29.4629H32.2804V29.5767H32.1524V29.4629H31.9675V29.5909H31.8395V29.4487H31.6688V29.7331C31.6688 29.79 31.6972 29.8185 31.7399 29.8185H32.3657C32.4084 29.8185 32.451 29.79 32.451 29.7474V29.4629Z" stroke="black" stroke-width="0.0711113"/>
<path d="M32.5364 30.2736V30.7571H33.1052V30.2736H32.5364Z" fill="#FFFF00" stroke="black" stroke-width="0.0711113"/>
<path d="M31.0288 30.2736V30.7571H31.5977V30.2736H31.0288Z" fill="#FFFF00" stroke="black" stroke-width="0.0711113"/>
<path d="M33.2048 29.9038H33.0341V30.046H32.9061V29.9038H32.7355V30.046H32.6075V29.9038H32.4368V30.1883C32.4368 30.2451 32.4652 30.2736 32.5079 30.2736H33.1195C33.1421 30.2736 33.1638 30.2646 33.1798 30.2486C33.1958 30.2326 33.2048 30.2109 33.2048 30.1883V29.9038Z" fill="#FFFF00" stroke="black" stroke-width="0.0711113"/>
<path d="M31.6972 29.9038H31.5266V30.046H31.3986V29.9038H31.2279V30.046H31.0999V29.9038H30.9292V30.1883C30.9292 30.2451 30.9577 30.2736 31.0004 30.2736H31.6119C31.6345 30.2736 31.6562 30.2646 31.6722 30.2486C31.6883 30.2326 31.6972 30.2109 31.6972 30.1883V29.9038Z" fill="#FFFF00" stroke="black" stroke-width="0.0711113"/>
<path d="M32.1239 30.1314C32.1239 30.046 31.9959 30.046 31.9959 30.1314V30.3589H32.1239V30.1314Z" fill="black"/>
<path d="M32.8777 30.4442C32.8777 30.3589 32.7639 30.3589 32.7639 30.4442V30.6149H32.8777V30.4442Z" fill="black"/>
<path d="M31.3701 30.4442C31.3701 30.3589 31.2564 30.3589 31.2564 30.4442V30.6149H31.3701V30.4442Z" fill="black"/>
<path d="M30.0835 38.9569C30.6285 38.3957 30.3688 37.8718 30.3688 37.8718C30.3588 37.8617 29.7966 37.5782 29.2416 38.1294L30.0734 38.967" fill="#FFFF00"/>
<path d="M31.1003 38.6286L30.5347 39.3306L30.1138 38.9068C30.6386 38.3856 30.3185 37.9018 30.3185 37.9018C30.3084 37.8917 29.8066 37.6084 29.3021 38.0893L28.8812 37.6655L29.6072 37.1048L31.1104 38.6186L31.1003 38.6286ZM30.5547 39.3709L28.851 37.6553C28.821 37.625 28.7606 37.6248 28.7203 37.6649C28.6698 37.715 28.6696 37.7754 28.6997 37.8056L30.4033 39.5212C30.4334 39.5515 30.4937 39.5517 30.5442 39.5016C30.5845 39.4615 30.5848 39.4012 30.5447 39.3608L30.5547 39.3709Z" fill="#FFFF00" stroke="black" stroke-width="0.0711113"/>
<path d="M29.9435 38.7352C30.2765 38.4045 30.1368 38.0822 30.1368 38.0822C30.1368 38.0822 29.8054 37.9503 29.4825 38.271L29.9435 38.7352ZM31.4329 38.4186L29.7994 36.7736C29.7694 36.7434 29.699 36.7532 29.6586 36.7933C29.6283 36.8233 29.6281 36.8837 29.6582 36.9139L31.2917 38.5589C31.3217 38.5892 31.3821 38.5894 31.4224 38.5493C31.4527 38.5192 31.4529 38.4589 31.4229 38.4286L31.4329 38.4186ZM31.2415 38.5285L29.6982 36.9744C29.6681 36.9441 29.6078 36.9439 29.5674 36.984C29.527 37.0241 29.5268 37.0844 29.5569 37.1147L31.1102 38.6789C31.1503 38.7193 31.2006 38.7094 31.241 38.6693C31.2814 38.6292 31.2916 38.579 31.2515 38.5386L31.2415 38.5285ZM31.8101 36.9617L31.6899 36.8406L31.6091 36.9208L31.5189 36.8299L31.5997 36.7498L31.4694 36.6186L31.3786 36.7088L31.2884 36.6179L31.3893 36.5177L31.269 36.3966L31.0672 36.597C31.0268 36.6371 31.0267 36.6774 31.0568 36.7076L31.4977 37.1517C31.5278 37.1819 31.578 37.1922 31.6083 37.1621L31.8101 36.9617ZM31.0767 36.768L30.4007 37.3791L30.8317 37.8131L31.4576 37.1314L31.0868 36.758" fill="#FFFF00"/>
<path d="M31.0767 36.768L30.4007 37.3791L30.8317 37.8131L31.4576 37.1314L31.0868 36.758M29.9435 38.7352C30.2765 38.4045 30.1368 38.0822 30.1368 38.0822C30.1368 38.0822 29.8054 37.9503 29.4825 38.271L29.9435 38.7352ZM31.4329 38.4186L29.7994 36.7736C29.7694 36.7434 29.699 36.7532 29.6586 36.7933C29.6283 36.8233 29.6281 36.8837 29.6582 36.9139L31.2917 38.5589C31.3217 38.5892 31.3821 38.5894 31.4224 38.5493C31.4527 38.5192 31.4529 38.4589 31.4229 38.4286L31.4329 38.4186ZM31.2415 38.5285L29.6982 36.9744C29.6681 36.9441 29.6078 36.9439 29.5674 36.984C29.527 37.0241 29.5268 37.0844 29.5569 37.1147L31.1102 38.6789C31.1503 38.7193 31.2006 38.7094 31.241 38.6693C31.2814 38.6292 31.2916 38.579 31.2515 38.5386L31.2415 38.5285ZM31.8101 36.9617L31.6899 36.8406L31.6091 36.9208L31.5189 36.8299L31.5997 36.7498L31.4694 36.6186L31.3786 36.7088L31.2884 36.6179L31.3893 36.5177L31.269 36.3966L31.0672 36.597C31.0268 36.6371 31.0267 36.6774 31.0568 36.7076L31.4977 37.1517C31.5278 37.1819 31.578 37.1922 31.6083 37.1621L31.8101 36.9617Z" stroke="black" stroke-width="0.0711113"/>
<path d="M31.295 37.5935L30.9519 37.9342L31.3528 38.3379L31.6959 37.9971L31.295 37.5935Z" fill="#FFFF00" stroke="black" stroke-width="0.0711113"/>
<path d="M30.2328 36.5237L29.8896 36.8645L30.2905 37.2681L30.6336 36.9274L30.2328 36.5237Z" fill="#FFFF00" stroke="black" stroke-width="0.0711113"/>
<path d="M32.0284 37.8072L31.9082 37.6861L31.8073 37.7863L31.7171 37.6955L31.818 37.5953L31.6977 37.4742L31.5968 37.5744L31.5066 37.4836L31.6075 37.3834L31.4873 37.2623L31.2854 37.4627C31.2451 37.5028 31.2449 37.543 31.275 37.5733L31.7059 38.0072C31.7219 38.0233 31.7435 38.0324 31.7662 38.0324C31.7888 38.0325 31.8105 38.0236 31.8266 38.0077L32.0284 37.8072Z" fill="#FFFF00" stroke="black" stroke-width="0.0711113"/>
<path d="M30.9662 36.7375L30.8459 36.6164L30.745 36.7166L30.6548 36.6258L30.7557 36.5256L30.6354 36.4045L30.5345 36.5047L30.4443 36.4139L30.5453 36.3136L30.425 36.1925L30.2232 36.393C30.1828 36.4331 30.1827 36.4733 30.2127 36.5036L30.6436 36.9375C30.6596 36.9536 30.6813 36.9626 30.7039 36.9627C30.7265 36.9628 30.7483 36.9539 30.7643 36.9379L30.9662 36.7375Z" fill="#FFFF00" stroke="black" stroke-width="0.0711113"/>
<path d="M31.1053 37.2006C31.1659 37.1405 31.0757 37.0496 31.0151 37.1098L30.8537 37.2701L30.9439 37.3609L31.1053 37.2006Z" fill="black"/>
<path d="M31.4144 37.9559C31.475 37.8958 31.3948 37.8151 31.3343 37.8752L31.2132 37.9954L31.2933 38.0762L31.4144 37.9559Z" fill="black"/>
<path d="M30.3522 36.8862C30.4127 36.8261 30.3326 36.7453 30.272 36.8055L30.1509 36.9257L30.2311 37.0064L30.3522 36.8862Z" fill="black"/>
<path d="M24.5435 32.3358C24.5409 32.636 24.6528 32.9259 24.8563 33.1465C24.9513 33.2527 25.0674 33.3379 25.1972 33.3967C25.327 33.4555 25.4676 33.4865 25.6101 33.4878C25.9088 33.4878 26.179 33.3456 26.3639 33.1465C26.5675 32.9259 26.6794 32.636 26.6768 32.3358V30.7998H24.5435V32.3358Z" fill="#003399"/>
<path d="M25.0412 31.5963C25.1591 31.5963 25.2546 31.5008 25.2546 31.383C25.2546 31.2651 25.1591 31.1696 25.0412 31.1696C24.9234 31.1696 24.8279 31.2651 24.8279 31.383C24.8279 31.5008 24.9234 31.5963 25.0412 31.5963Z" fill="white"/>
<path d="M26.2217 31.5963C26.3395 31.5963 26.435 31.5008 26.435 31.383C26.435 31.2651 26.3395 31.1696 26.2217 31.1696C26.1039 31.1696 26.0083 31.2651 26.0083 31.383C26.0083 31.5008 26.1039 31.5963 26.2217 31.5963Z" fill="white"/>
<path d="M25.6243 32.1652C25.7422 32.1652 25.8377 32.0696 25.8377 31.9518C25.8377 31.834 25.7422 31.7385 25.6243 31.7385C25.5065 31.7385 25.411 31.834 25.411 31.9518C25.411 32.0696 25.5065 32.1652 25.6243 32.1652Z" fill="white"/>
<path d="M25.0412 32.7625C25.1591 32.7625 25.2546 32.667 25.2546 32.5492C25.2546 32.4314 25.1591 32.3358 25.0412 32.3358C24.9234 32.3358 24.8279 32.4314 24.8279 32.5492C24.8279 32.667 24.9234 32.7625 25.0412 32.7625Z" fill="white"/>
<path d="M26.2217 32.7625C26.3395 32.7625 26.435 32.667 26.435 32.5492C26.435 32.4314 26.3395 32.3358 26.2217 32.3358C26.1039 32.3358 26.0083 32.4314 26.0083 32.5492C26.0083 32.667 26.1039 32.7625 26.2217 32.7625Z" fill="white"/>
<path d="M24.5435 28.6381C24.5409 28.9382 24.6528 29.2281 24.8563 29.4487C24.9513 29.5549 25.0674 29.6401 25.1972 29.6989C25.327 29.7577 25.4676 29.7887 25.6101 29.7901C25.9088 29.7901 26.179 29.6478 26.3639 29.4487C26.5675 29.2281 26.6794 28.9382 26.6768 28.6381V27.1021H24.5435V28.6381Z" fill="#003399"/>
<path d="M25.0412 27.8985C25.1591 27.8985 25.2546 27.803 25.2546 27.6852C25.2546 27.5673 25.1591 27.4718 25.0412 27.4718C24.9234 27.4718 24.8279 27.5673 24.8279 27.6852C24.8279 27.803 24.9234 27.8985 25.0412 27.8985Z" fill="white"/>
<path d="M26.2217 27.8985C26.3395 27.8985 26.435 27.803 26.435 27.6852C26.435 27.5673 26.3395 27.4718 26.2217 27.4718C26.1039 27.4718 26.0083 27.5673 26.0083 27.6852C26.0083 27.803 26.1039 27.8985 26.2217 27.8985Z" fill="white"/>
<path d="M25.6243 28.4674C25.7422 28.4674 25.8377 28.3719 25.8377 28.254C25.8377 28.1362 25.7422 28.0407 25.6243 28.0407C25.5065 28.0407 25.411 28.1362 25.411 28.254C25.411 28.3719 25.5065 28.4674 25.6243 28.4674Z" fill="white"/>
<path d="M25.0412 29.0647C25.1591 29.0647 25.2546 28.9692 25.2546 28.8514C25.2546 28.7336 25.1591 28.6381 25.0412 28.6381C24.9234 28.6381 24.8279 28.7336 24.8279 28.8514C24.8279 28.9692 24.9234 29.0647 25.0412 29.0647Z" fill="white"/>
<path d="M26.2217 29.0647C26.3395 29.0647 26.435 28.9692 26.435 28.8514C26.435 28.7336 26.3395 28.6381 26.2217 28.6381C26.1039 28.6381 26.0083 28.7336 26.0083 28.8514C26.0083 28.9692 26.1039 29.0647 26.2217 29.0647Z" fill="white"/>
<path d="M21.5852 32.3358C21.5827 32.636 21.6945 32.9259 21.8981 33.1465C21.9931 33.2527 22.1092 33.3379 22.239 33.3967C22.3688 33.4555 22.5094 33.4865 22.6519 33.4878C22.9506 33.4878 23.2208 33.3456 23.4057 33.1465C23.6093 32.9259 23.7211 32.636 23.7186 32.3358V30.7998H21.5852V32.3358Z" fill="#003399"/>
<path d="M22.083 31.5963C22.2008 31.5963 22.2963 31.5008 22.2963 31.383C22.2963 31.2651 22.2008 31.1696 22.083 31.1696C21.9652 31.1696 21.8697 31.2651 21.8697 31.383C21.8697 31.5008 21.9652 31.5963 22.083 31.5963Z" fill="white"/>
<path d="M23.2635 31.5963C23.3813 31.5963 23.4768 31.5008 23.4768 31.383C23.4768 31.2651 23.3813 31.1696 23.2635 31.1696C23.1456 31.1696 23.0501 31.2651 23.0501 31.383C23.0501 31.5008 23.1456 31.5963 23.2635 31.5963Z" fill="white"/>
<path d="M22.6661 32.1652C22.7839 32.1652 22.8794 32.0696 22.8794 31.9518C22.8794 31.834 22.7839 31.7385 22.6661 31.7385C22.5483 31.7385 22.4528 31.834 22.4528 31.9518C22.4528 32.0696 22.5483 32.1652 22.6661 32.1652Z" fill="white"/>
<path d="M22.083 32.7625C22.2008 32.7625 22.2963 32.667 22.2963 32.5492C22.2963 32.4314 22.2008 32.3358 22.083 32.3358C21.9652 32.3358 21.8697 32.4314 21.8697 32.5492C21.8697 32.667 21.9652 32.7625 22.083 32.7625Z" fill="white"/>
<path d="M23.2635 32.7625C23.3813 32.7625 23.4768 32.667 23.4768 32.5492C23.4768 32.4314 23.3813 32.3358 23.2635 32.3358C23.1456 32.3358 23.0501 32.4314 23.0501 32.5492C23.0501 32.667 23.1456 32.7625 23.2635 32.7625Z" fill="white"/>
<path d="M27.5017 32.3358C27.4991 32.636 27.611 32.9259 27.8146 33.1465C27.9096 33.2527 28.0257 33.3379 28.1555 33.3967C28.2852 33.4555 28.4259 33.4865 28.5684 33.4878C28.867 33.4878 29.1372 33.3456 29.3221 33.1465C29.5257 32.9259 29.6376 32.636 29.635 32.3358V30.7998H27.5017V32.3358Z" fill="#003399"/>
<path d="M27.9995 31.5963C28.1173 31.5963 28.2128 31.5008 28.2128 31.383C28.2128 31.2651 28.1173 31.1696 27.9995 31.1696C27.8816 31.1696 27.7861 31.2651 27.7861 31.383C27.7861 31.5008 27.8816 31.5963 27.9995 31.5963Z" fill="white"/>
<path d="M29.1799 31.5963C29.2977 31.5963 29.3932 31.5008 29.3932 31.383C29.3932 31.2651 29.2977 31.1696 29.1799 31.1696C29.0621 31.1696 28.9666 31.2651 28.9666 31.383C28.9666 31.5008 29.0621 31.5963 29.1799 31.5963Z" fill="white"/>
<path d="M28.5826 32.1652C28.7004 32.1652 28.7959 32.0696 28.7959 31.9518C28.7959 31.834 28.7004 31.7385 28.5826 31.7385C28.4648 31.7385 28.3692 31.834 28.3692 31.9518C28.3692 32.0696 28.4648 32.1652 28.5826 32.1652Z" fill="white"/>
<path d="M27.9995 32.7625C28.1173 32.7625 28.2128 32.667 28.2128 32.5492C28.2128 32.4314 28.1173 32.3358 27.9995 32.3358C27.8816 32.3358 27.7861 32.4314 27.7861 32.5492C27.7861 32.667 27.8816 32.7625 27.9995 32.7625Z" fill="white"/>
<path d="M29.1799 32.7625C29.2977 32.7625 29.3932 32.667 29.3932 32.5492C29.3932 32.4314 29.2977 32.3358 29.1799 32.3358C29.0621 32.3358 28.9666 32.4314 28.9666 32.5492C28.9666 32.667 29.0621 32.7625 29.1799 32.7625Z" fill="white"/>
<path d="M24.5435 36.0052C24.5409 36.3054 24.6528 36.5952 24.8563 36.8158C24.9513 36.9221 25.0674 37.0073 25.1972 37.066C25.327 37.1248 25.4676 37.1559 25.6101 37.1572C25.9088 37.1572 26.179 37.015 26.3639 36.8158C26.5675 36.5952 26.6794 36.3054 26.6768 36.0052V34.4692H24.5435V36.0052Z" fill="#003399"/>
<path d="M25.0412 35.2656C25.1591 35.2656 25.2546 35.1701 25.2546 35.0523C25.2546 34.9345 25.1591 34.839 25.0412 34.839C24.9234 34.839 24.8279 34.9345 24.8279 35.0523C24.8279 35.1701 24.9234 35.2656 25.0412 35.2656Z" fill="white"/>
<path d="M26.2217 35.2656C26.3395 35.2656 26.435 35.1701 26.435 35.0523C26.435 34.9345 26.3395 34.839 26.2217 34.839C26.1039 34.839 26.0083 34.9345 26.0083 35.0523C26.0083 35.1701 26.1039 35.2656 26.2217 35.2656Z" fill="white"/>
<path d="M25.6243 35.8345C25.7422 35.8345 25.8377 35.739 25.8377 35.6212C25.8377 35.5033 25.7422 35.4078 25.6243 35.4078C25.5065 35.4078 25.411 35.5033 25.411 35.6212C25.411 35.739 25.5065 35.8345 25.6243 35.8345Z" fill="white"/>
<path d="M25.0412 36.4319C25.1591 36.4319 25.2546 36.3363 25.2546 36.2185C25.2546 36.1007 25.1591 36.0052 25.0412 36.0052C24.9234 36.0052 24.8279 36.1007 24.8279 36.2185C24.8279 36.3363 24.9234 36.4319 25.0412 36.4319Z" fill="white"/>
<path d="M26.2217 36.4319C26.3395 36.4319 26.435 36.3363 26.435 36.2185C26.435 36.1007 26.3395 36.0052 26.2217 36.0052C26.1039 36.0052 26.0083 36.1007 26.0083 36.2185C26.0083 36.3363 26.1039 36.4319 26.2217 36.4319Z" fill="white"/>
</g>
<defs>
<clipPath id="clip0_66_15206">
<rect width="64" height="64" rx="32" fill="white"/>
</clipPath>
</defs>
</svg>
