<svg width="64" height="64" viewBox="0 0 64 64" fill="none" xmlns="http://www.w3.org/2000/svg">
<g clip-path="url(#clip0_66_15042)">
<mask id="mask0_66_15042" style="mask-type:luminance" maskUnits="userSpaceOnUse" x="-1" y="0" width="65" height="64">
<path d="M-0.00244904 0H63.9877V63.9902H-0.00244904V0Z" fill="white"/>
</mask>
<g mask="url(#mask0_66_15042)">
<path fill-rule="evenodd" clip-rule="evenodd" d="M-16 0H79.9853V63.9902H-16V0Z" fill="#165D31"/>
<path fill-rule="evenodd" clip-rule="evenodd" d="M8.18984 18.1392C8.08663 19.6357 7.94472 22.2676 9.22194 22.5385C10.7572 22.6804 9.90571 19.9324 10.4605 19.4422C10.5766 19.1842 10.7701 19.1842 10.783 19.5067V21.8289C10.7701 22.603 11.2603 22.8094 11.6474 22.9771C12.0602 22.9384 12.3182 22.9513 12.486 23.3384L12.6666 27.3764C12.6666 27.3764 13.6084 27.6345 13.6471 25.1058C13.6987 23.6222 13.3503 22.3708 13.5568 22.0869C13.5568 21.8031 13.918 21.7902 14.176 21.9192C14.576 22.203 14.7566 22.5643 15.3758 22.4095C16.3305 22.1514 16.8982 21.687 16.924 20.9645C16.8912 20.253 16.743 19.5515 16.4853 18.8874C16.5241 18.7584 16.2918 18.4359 16.3434 18.3069C16.5112 18.5649 16.7692 18.552 16.8337 18.3069C16.666 17.765 16.4208 17.2619 16.008 17.0425C15.6726 16.7458 15.1823 16.8103 15.0017 17.4296C14.9805 18.2428 15.2556 19.036 15.7758 19.6615C15.938 20.0121 16.0048 20.3993 15.9693 20.7839C15.6984 20.9516 15.4274 20.8742 15.1952 20.642C15.1952 20.642 14.434 20.0614 14.434 19.9453C14.6405 18.6552 14.4857 18.5133 14.3695 18.1521C14.2921 17.6618 14.0599 17.507 13.8664 17.1716C13.6729 16.9651 13.4278 16.9651 13.2987 17.1716C12.9633 17.7521 13.1181 18.9906 13.3632 19.5454C13.5439 20.0614 13.8019 20.384 13.6729 20.384C13.5697 20.6678 13.3632 20.6033 13.2084 20.2679C13.017 19.5573 12.9258 18.8234 12.9375 18.0875C12.873 17.507 12.8085 16.2814 12.4215 15.9717C12.1892 15.6621 11.8409 15.8169 11.7248 16.1008C11.6922 16.6599 11.7051 17.2208 11.7635 17.7779C12.0215 18.681 12.0989 19.5067 12.2279 20.4485C12.2666 21.7128 11.4926 21.0032 11.5313 20.3711C11.7119 19.5583 11.6603 18.2682 11.5055 17.9456C11.3765 17.6231 11.2345 17.5457 10.9378 17.5973C10.6798 17.5715 10.0734 18.2424 9.90571 19.3777C9.90571 19.3777 9.7509 19.9582 9.68639 20.4614C9.59608 21.0419 9.22194 21.4548 8.95102 20.384C8.7188 19.6099 8.57688 17.6876 8.18984 18.1392Z" fill="white"/>
<path fill-rule="evenodd" clip-rule="evenodd" d="M12.3698 24.2802L8.37046 26.2024C8.40916 25.2994 10.2669 23.648 11.5313 23.6222C12.3569 23.648 12.1505 23.9447 12.3698 24.2673V24.2802Z" fill="white"/>
<path fill-rule="evenodd" clip-rule="evenodd" d="M11.6732 25.5316C9.55738 30.963 16.6015 31.7242 17.3884 25.7509C17.4658 25.5058 17.7755 25.2606 17.8142 25.6606C17.6465 31.0791 12.3698 31.4403 11.4668 29.7374C11.2474 29.3503 11.1829 28.4472 11.1571 27.9054C11.0281 26.8475 10.4605 27.2603 10.3831 28.3182C10.2927 28.8988 10.3056 29.0665 10.3056 29.6342C10.5895 33.8916 17.4013 32.0596 18.5108 28.5376C19.0914 26.5895 18.4076 25.1445 18.7302 25.1445C19.401 25.8799 20.3557 25.2477 20.5621 24.9897C20.6524 24.8607 20.8718 24.7833 21.0266 24.951C21.5426 25.338 22.4844 25.1445 22.6779 24.4866C22.7812 23.8286 22.8715 23.1577 22.8973 22.4611C22.4715 22.5901 22.149 22.6804 22.1232 22.8481L22.0329 23.4416C21.9942 23.6222 21.62 23.6351 21.6071 23.39C21.4394 22.6546 20.7686 22.5514 20.3557 23.6996C20.0848 23.9318 19.5816 23.9576 19.53 23.6351C19.5945 22.861 19.2849 22.7578 18.6657 23.119L18.0593 18.6036C18.3173 18.6036 18.5624 18.7842 18.7947 18.4875C18.5366 17.6747 17.9819 16.0362 17.6852 15.9072C17.5303 15.7266 17.4142 15.8427 17.2207 15.8814C16.8853 15.9846 16.5757 16.2685 16.6789 16.8232L17.711 23.2997C17.7626 23.5706 17.5303 23.9447 17.2336 23.906C16.7305 23.5577 16.6015 22.8739 15.75 22.8997C15.1178 22.8997 14.4082 23.5835 14.3308 24.2414C14.2147 24.7575 14.176 25.3251 14.3308 25.7767C14.7566 26.2927 15.2855 26.254 15.75 26.125C16.1241 25.9702 16.4337 25.5961 16.5757 25.6864C16.666 25.8025 16.5886 27.041 14.7824 28.0086C13.6987 28.4989 12.8214 28.6021 12.3569 27.7119C12.0731 27.1571 12.3827 25.0413 11.6732 25.5187V25.5316Z" fill="white"/>
<path fill-rule="evenodd" clip-rule="evenodd" d="M20.6137 19.9969C21.0395 19.855 23.0392 17.5457 23.0392 17.5457L22.7425 17.3135C22.6263 17.2103 22.6392 17.12 22.7425 17.0167C23.2327 16.7329 23.0779 16.0879 22.8199 15.804C22.6516 15.72 22.4661 15.6762 22.278 15.6762C22.0899 15.6762 21.9044 15.72 21.7362 15.804C21.3878 16.1524 21.3104 16.6813 21.5813 17.0167C21.8394 17.1458 22.1232 17.4038 21.9426 17.5586C21.1169 18.4359 18.8721 19.9453 19.1301 20.0098C19.1817 20.0743 20.575 20.0743 20.6137 20.0098V19.9969ZM8.49947 28.1247C7.7512 29.3245 7.68669 31.1178 8.11244 31.6468C8.31886 31.9048 8.68009 32.008 8.95102 31.9306C9.42836 31.7242 9.63478 30.7695 9.51867 30.4211C9.36386 30.1631 9.23484 30.1373 9.08003 30.3437C8.7446 31.0146 8.60268 30.5502 8.57688 30.176C8.52528 29.4664 8.58978 28.7956 8.66719 28.2795C8.7575 27.7506 8.66719 27.9054 8.49947 28.1247ZM40.6365 26.1895C39.914 24.6285 38.9077 23.0803 38.5852 22.4869C37.6123 20.9462 36.5794 19.4442 35.4889 17.9843C34.7148 17.0554 36.7661 18.3714 35.2309 16.5265C34.6503 16.0104 34.6116 15.9975 34.1214 15.5847C33.8762 15.4041 33.2828 15.0945 33.1796 15.6105C33.1283 15.9804 33.1458 16.3565 33.2312 16.72C33.2828 16.978 33.6569 17.4038 33.8504 17.6618C36.3017 20.9516 38.482 24.293 40.572 28.4731C40.9074 28.3182 40.83 26.4605 40.6365 26.1895Z" fill="white"/>
<path fill-rule="evenodd" clip-rule="evenodd" d="M37.4499 31.4403C37.308 31.6081 37.7982 32.2918 38.4433 32.2918C39.527 32.1628 40.4688 31.5565 41.3461 29.9696C41.5783 29.5826 41.9911 28.8085 42.004 28.1763C42.0943 24.564 41.8234 21.7515 41.2816 19.1455C41.2557 18.8874 41.2815 18.5778 41.3203 18.5004C41.3848 18.423 41.617 18.5004 41.746 18.3069C41.9266 18.1134 41.2557 16.5523 40.8816 15.9588C40.7397 15.6879 40.6881 15.5073 40.4688 15.9846C40.2237 16.3717 40.0817 17.0555 40.0817 17.6876C40.5978 21.2484 40.7655 24.3705 41.1009 27.9183C41.1267 28.2666 41.0751 28.7698 40.8429 28.9633C39.8993 30.0191 38.743 30.8632 37.4499 31.4403ZM52.0025 31.4274C51.2284 31.8661 51.2284 32.3821 51.8606 32.4079C52.9314 32.2789 54.2086 32.1886 55.0859 30.8598C55.3181 30.4857 55.6019 29.4794 55.6148 28.873C55.6922 25.2606 55.5632 22.5514 55.0214 19.9453C54.9956 19.6873 54.8795 19.1068 54.9182 19.0293C54.9956 18.8487 55.3439 19.0422 55.4729 18.8358C55.6535 18.6552 54.5698 17.249 54.1828 16.6426C54.0409 16.3846 53.9893 16.204 53.77 16.6813C53.5248 17.0684 53.4474 17.765 53.5377 18.3714C54.1183 22.2418 54.544 25.1445 54.6214 28.5634C54.5827 28.8988 54.5698 29.0794 54.415 29.4794C54.0796 29.918 53.7055 30.4599 53.3442 30.7179C52.9959 30.9759 52.2476 31.2339 52.0025 31.4274Z" fill="white"/>
<path fill-rule="evenodd" clip-rule="evenodd" d="M52.583 27.957V25.5961C52.5731 25.0078 52.4413 24.4279 52.196 23.8931C51.9638 23.3771 52.1057 22.9771 52.0025 22.4224C51.8993 21.8805 51.9251 21.0548 51.7703 20.4098C51.7187 20.1518 51.5896 19.3519 51.6413 19.2745C51.6929 19.0938 51.938 19.2745 52.0541 19.068C52.2347 18.8745 51.4348 16.8103 51.0349 16.2298C50.893 15.9717 50.635 16.0492 50.2995 16.4878C50.0028 16.7587 50.1189 17.4038 50.235 18.0101C51.0091 22.0482 51.5768 25.7122 51.4606 29.5439C51.4219 29.8793 52.5959 28.5763 52.583 27.957ZM46.8678 22.9513C46.3904 22.9513 45.3712 21.9966 45.0616 21.4548C45.0169 21.3242 44.9996 21.1857 45.0107 21.0481C45.0218 20.9105 45.0611 20.7767 45.1261 20.6549C45.3067 20.5259 45.5906 20.3969 45.797 20.5259C45.797 20.5259 46.0034 20.8355 45.9647 20.8742C46.2227 21.0032 46.3517 20.9258 46.3775 20.8097C46.3904 20.6291 46.2872 20.513 46.2872 20.2937C46.4162 19.7389 47.0613 19.6486 47.2935 20.0098C47.4742 20.2292 47.5387 20.6936 47.5645 21.0161C47.5645 21.1709 47.3064 20.9774 47.1516 21.0161C47.0097 21.0677 46.971 21.2355 46.9581 21.3903C46.9323 21.8031 46.8807 22.4611 46.8678 22.9384V22.9513ZM37.8885 28.9633C38.0175 27.7248 37.8498 25.5445 37.8369 24.822C37.7853 23.1061 37.5015 19.7905 37.3725 19.2487C37.2177 18.2037 37.7982 19.3648 37.7208 18.7584C37.5273 17.7263 36.9467 17.0038 36.2759 16.0492C36.0565 15.7524 36.0694 15.6879 35.7211 16.1266C35.3599 16.978 35.6824 17.5586 35.7727 18.2166C36.263 20.3711 36.5468 22.345 36.6758 24.306C36.8204 26.3456 36.8376 28.3923 36.7274 30.434C37.1015 30.4598 37.695 29.8406 37.8885 28.9633Z" fill="white"/>
<path fill-rule="evenodd" clip-rule="evenodd" d="M54.2473 26.9894C53.3829 25.5574 52.0928 23.9963 51.7445 23.4158C50.5893 21.7941 49.3758 20.2148 48.1063 18.681C47.0355 17.5586 48.5966 18.5004 47.8999 17.636C47.3064 16.9909 47.1258 16.7845 46.6356 16.3975C46.3775 16.2298 46.2227 15.9201 46.1453 16.4491C46.1066 16.9135 46.0808 17.4554 46.1066 17.8553C46.1066 18.0746 46.3388 18.4746 46.5324 18.7197C49.1126 21.9063 51.9509 25.1703 54.2344 29.26C54.5569 29.0794 54.4537 27.2474 54.2344 26.9894H54.2473Z" fill="white"/>
<path fill-rule="evenodd" clip-rule="evenodd" d="M15.3242 24.3318C15.2597 24.4479 15.1178 24.5898 15.1694 24.7188C15.2726 24.8478 15.35 24.8865 15.5049 24.8994C15.6339 24.8994 15.8403 24.9252 15.879 24.8478C15.9255 24.791 15.956 24.7227 15.9673 24.6502C15.9787 24.5776 15.9704 24.5033 15.9435 24.435C15.8145 24.0737 15.4016 24.2028 15.3242 24.3318Z" fill="#165D31"/>
<path fill-rule="evenodd" clip-rule="evenodd" d="M44.2746 45.3221C45.4229 45.3608 46.1711 45.3737 47.1903 45.4898L48.3772 45.3608C49.7061 45.2318 49.7706 47.2573 49.7706 47.2573C49.7577 48.4442 49.2932 48.4958 48.7127 48.6248C48.3772 48.6764 48.1966 48.4313 48.0289 48.1733C47.8096 48.2636 47.5129 48.2765 47.1387 48.2249C46.6614 48.1991 46.184 48.1991 45.7196 48.1604C45.2035 48.1217 44.9326 48.2249 44.4295 48.1733C44.3133 48.341 44.1714 48.5603 43.8747 48.4958C43.6167 48.47 43.307 47.7346 43.3974 47.1928C43.578 46.7928 43.5264 46.9219 43.5135 46.7412C38.8174 46.6251 34.0956 46.4187 29.4898 46.4832C25.8775 46.4832 22.3296 46.638 18.7818 46.7928C16.8853 46.767 15.4274 46.4574 14.434 44.9867C14.5244 44.9867 19.272 45.2705 20.6525 45.1802C23.2327 45.1415 25.5678 44.9351 28.1868 44.8577C33.3473 44.948 38.4433 44.948 43.6038 45.3092C43.1135 44.9738 43.0877 44.1739 43.8618 43.9804C43.9134 43.9417 43.9521 44.3674 44.0682 44.3674C44.6617 44.3287 44.4037 45.1415 44.2746 45.3221ZM23.581 16.9006C22.807 19.1326 24.0197 21.5709 24.8712 21.3387C25.4904 21.5967 25.8775 20.4227 26.1355 19.1455C26.3032 18.7842 26.4322 18.7455 26.5225 18.9261C26.4967 20.6291 26.6515 21.0032 27.0902 21.5193C27.3426 21.7446 27.6672 21.8723 28.0055 21.8794C28.3437 21.8865 28.6734 21.7725 28.9351 21.558L29.6962 20.7839C29.8639 20.6162 30.0833 20.6033 30.3284 20.7581C30.5606 20.9774 30.5219 21.3387 31.0251 21.5967C31.4379 21.7644 32.341 21.6354 32.5474 21.2742C32.8183 20.7968 32.8957 20.6291 33.0247 20.4485C33.2183 20.1905 33.5537 20.2937 33.5537 20.384C33.5279 20.5259 33.3344 20.6807 33.4634 20.9387C33.6956 21.1194 33.7601 21.0032 33.902 20.9645C34.3923 20.7323 34.7664 19.6486 34.7664 19.6486C34.7793 19.2616 34.56 19.2874 34.4181 19.3648L34.031 19.6357C33.773 19.6744 33.3086 19.8292 33.0764 19.468C32.8441 19.0423 32.8312 18.4359 32.6506 17.9973C32.6506 17.9714 32.341 17.3135 32.6377 17.2748C32.7796 17.3006 33.1022 17.378 33.1538 17.12C33.3086 16.8619 32.8183 16.1266 32.4829 15.7524C32.1991 15.4428 31.7862 15.4041 31.3992 15.7266C31.1412 15.9847 31.167 16.2427 31.1154 16.5136C31.0708 16.7018 31.0709 16.8979 31.1157 17.0861C31.1605 17.2743 31.2487 17.4494 31.3734 17.5973C31.6443 18.1263 32.1475 18.81 31.9797 19.7905C31.9797 19.7905 31.683 20.2421 31.1799 20.1776C30.9735 20.126 30.638 20.0485 30.4574 18.7068C30.3284 17.6876 30.4832 16.2685 30.0575 15.6105C29.9026 15.1977 29.7994 14.8106 29.4124 15.5073C29.3092 15.7653 28.8705 16.1782 29.1802 17.0297C29.4753 17.7795 29.5644 18.5947 29.4382 19.3906C29.2576 19.6615 29.2189 19.7647 28.9738 20.0356C28.6512 20.384 28.29 20.2937 28.0191 20.1647C27.761 19.9969 27.5546 19.9066 27.4385 19.3519C27.4643 18.4746 27.503 17.0426 27.3482 16.7329C27.116 16.2685 26.7289 16.4362 26.5612 16.5781C25.8126 17.4083 25.312 18.4319 25.1163 19.5325C24.897 20.2421 24.6647 20.0485 24.497 19.7518C24.0971 19.3648 24.0713 16.4104 23.581 16.9006Z" fill="white"/>
<path fill-rule="evenodd" clip-rule="evenodd" d="M25.9291 21.7644C26.2903 21.5064 26.1226 21.3387 26.6515 21.8676C27.3324 23.0647 27.7296 24.402 27.8126 25.7767C27.7739 26.0992 28.0062 26.2927 28.1094 26.2282C28.161 25.48 30.0059 24.4221 31.683 24.2672C31.941 24.2156 31.812 23.7254 31.8507 23.4674C31.7475 22.5385 32.3668 21.687 33.257 21.6225C34.4439 21.8031 34.8438 22.4353 34.8696 23.4029C34.7406 25.2735 32.7925 25.5961 31.6959 25.7251C31.5282 25.8025 31.4637 25.8799 31.6959 25.9702L36.2759 25.9831L36.5081 26.1121C36.5339 26.2411 36.4436 26.1379 36.2501 26.4347C36.0565 26.7314 35.8114 27.4281 35.7985 27.8796C34.4255 28.2804 33.017 28.5482 31.5927 28.6795C31.1025 28.9375 30.8573 29.2729 30.9476 29.6471C31.1154 30.0728 32.2249 30.4856 32.2249 30.5115C32.4313 30.6405 32.6764 30.9501 32.1604 31.5694C29.9284 31.479 28.1997 30.5244 27.6062 29.1826C27.4256 29.0536 27.2192 29.1826 27.1031 29.3632C26.3263 30.5572 25.2064 31.4882 23.8907 32.0338C23.0005 32.2531 22.0974 31.9048 21.6716 31.3242C21.3878 30.9888 21.4007 30.6276 21.2846 30.5502C20.8073 30.7566 16.6918 32.5111 17.2207 31.6984C18.2141 30.6147 19.9558 29.8277 21.4781 28.7698C21.6071 28.4214 21.8007 27.2216 22.407 26.8346C22.4328 26.8346 22.3038 27.5313 22.3167 27.828C22.3167 28.0731 22.3038 28.1634 22.3554 28.0989C22.4586 28.0344 24.3164 26.5766 24.4583 26.125C24.6389 25.867 24.5099 25.2219 24.5099 25.1961C24.1745 24.293 23.6842 24.2285 23.5036 23.777C23.3359 23.1835 23.4133 22.5127 23.7488 22.3192C24.0455 22.0482 24.3938 22.074 24.7292 22.3708C25.1163 22.7062 25.4388 23.3642 25.542 23.8544C25.4775 24.0479 25.0518 23.7254 24.897 23.8286C25.155 24.0866 25.284 24.4092 25.3743 24.7962C25.6323 25.8283 25.542 26.2153 25.3098 26.8862C24.4841 28.615 23.4262 29.1439 22.4973 29.7761C22.4715 29.789 22.4586 30.2276 22.807 30.4598C22.936 30.5889 23.4133 30.6405 23.9681 30.4598C25.1748 29.7936 26.1509 28.7769 26.7676 27.5442C26.9354 26.6153 26.7031 25.6348 26.458 24.7833C26.1768 24.1042 25.9186 23.4157 25.6839 22.7191C25.6581 22.203 25.6968 22.0224 25.942 21.7644H25.9291ZM13.9567 16.9393C14.4728 17.1845 15.4661 17.0683 15.4274 16.2298L15.4016 15.8298C15.2984 15.5718 15.0017 15.6363 14.9372 15.9072C14.9114 15.9846 14.9759 16.1266 14.8985 16.1653C14.8469 16.204 14.6792 16.1782 14.6921 15.9459C14.6921 15.8685 14.6405 15.7911 14.6018 15.7395C14.5631 15.7266 14.5502 15.7137 14.4857 15.7137C14.4082 15.7137 14.4211 15.7395 14.3695 15.804L14.3308 15.9975C14.3308 16.0879 14.2921 16.1137 14.2276 16.1266C14.1631 16.1266 14.176 16.1266 14.1244 16.1008C14.0857 16.0621 14.047 16.0492 14.047 15.9846L14.0212 15.7782C13.9868 15.7402 13.9419 15.7132 13.8922 15.7008C13.5955 15.7008 13.5826 16.0362 13.5955 16.1653C13.5697 16.1782 13.5568 16.7716 13.9567 16.9393Z" fill="white"/>
<path fill-rule="evenodd" clip-rule="evenodd" d="M29.3866 23.4674C29.9026 23.7254 31.167 23.5706 30.8573 22.7578L30.8315 22.3708C30.7283 22.1127 30.4445 22.1772 30.3671 22.4353C30.3542 22.5127 30.4058 22.6546 30.3284 22.6933C30.2897 22.7449 30.122 22.7191 30.122 22.4869C30.122 22.4095 30.0704 22.3321 30.0317 22.2805C30.0059 22.2547 29.9801 22.2547 29.9155 22.2547C29.851 22.2547 29.851 22.2676 29.8123 22.3321L29.7736 22.5256C29.7607 22.6159 29.722 22.6546 29.6704 22.6546C29.593 22.6546 29.6188 22.6546 29.5543 22.6288C29.5285 22.5901 29.4769 22.5772 29.4769 22.5127C29.4769 22.4482 29.4769 22.345 29.4511 22.3063C29.4253 22.2676 29.3737 22.2547 29.3221 22.2418C29.0383 22.2418 29.0125 22.5643 29.0254 22.6933C29.0125 22.7191 28.9996 23.2997 29.3866 23.4674ZM38.3917 20.7581C38.9077 21.0161 39.9011 20.9 39.8624 20.0614L39.8366 19.6615C39.7334 19.4035 39.4367 19.468 39.3722 19.726C39.3464 19.8163 39.4109 19.9453 39.3335 19.984C39.2819 20.0356 39.1141 20.0098 39.127 19.7776C39.127 19.7002 39.0625 19.6228 39.0367 19.5712C38.998 19.5583 38.9851 19.5454 38.9077 19.5454C38.8432 19.5454 38.8432 19.5712 38.8045 19.6357L38.7658 19.8292C38.7658 19.9066 38.7271 19.9453 38.6626 19.9582C38.5981 19.9582 38.611 19.9582 38.5594 19.9195C38.5207 19.8937 38.482 19.8679 38.482 19.8163C38.482 19.7518 38.4691 19.6486 38.4433 19.597C38.4175 19.5583 38.3788 19.5454 38.3143 19.5325C38.0304 19.5325 38.0175 19.8679 38.0304 19.984C38.0046 20.0098 37.9917 20.6033 38.3917 20.7581ZM43.0361 27.5571C42.133 28.5892 42.533 30.2921 42.7394 30.6534C43.049 31.2726 43.2812 31.6597 43.8747 31.9564C44.4166 32.3434 44.8294 32.0983 45.0616 31.8274C45.6035 31.2726 45.6035 29.8406 45.8615 29.5568C46.0421 29.0407 46.4808 29.131 46.7001 29.3632C46.8993 29.6436 47.1653 29.8698 47.4741 30.0212C47.9773 30.4599 48.5708 30.5373 49.1642 30.1502C49.5642 29.918 49.8351 29.6213 50.0673 29.0407C50.3253 28.3311 50.1963 25.08 50.1318 23.1577C50.1189 23.0029 49.6158 20.5001 49.6158 20.4743C49.6158 20.4485 49.5384 19.1971 49.4867 18.9003C49.4867 18.7842 49.448 18.7455 49.5771 18.7713C49.7061 18.8745 49.7319 18.8874 49.8093 18.9261C49.9383 18.9519 50.0673 18.7197 49.9899 18.5004L48.7256 16.1782C48.6353 16.0879 48.5063 15.9846 48.3385 16.2169C48.2409 16.302 48.1627 16.4071 48.1093 16.5251C48.0559 16.643 48.0285 16.7711 48.0289 16.9006C48.0676 17.4554 48.1579 18.0101 48.1966 18.5649L48.7127 21.3774C48.8675 23.39 48.9062 25.0284 49.061 27.0539C49.0352 27.8925 48.7772 28.6408 48.5192 28.7311C48.5192 28.7311 48.145 28.9633 47.8999 28.7311C47.7064 28.6408 46.971 27.4926 46.971 27.4926C46.584 27.1442 46.3517 27.2345 46.0679 27.4926C45.3454 28.2021 45.01 29.5439 44.5069 30.4599C44.3778 30.6663 44.0037 30.8469 43.6038 30.447C42.5717 29.0278 43.178 27.041 43.049 27.5571H43.0361ZM38.6239 15.8298C39.1012 16.0234 39.4238 16.9909 39.3206 17.4554C39.2303 18.023 38.9722 18.6552 38.8045 18.5649C38.5981 18.5004 38.9335 17.9972 38.74 17.4683C38.6368 17.1329 37.9917 16.5007 38.0562 16.3201C37.9272 15.933 38.3401 15.7653 38.6239 15.8298Z" fill="white"/>
<path fill-rule="evenodd" clip-rule="evenodd" d="M44.5714 28.1247C44.6617 26.9636 44.494 26.2669 44.4682 25.5961C44.4424 24.9252 43.6941 19.7905 43.5651 19.2745C43.3716 18.3069 44.2746 19.1455 44.1714 18.5778C43.8618 17.8682 43.1006 16.8361 42.8555 16.2298C42.7136 15.9718 42.7652 15.7266 42.4427 16.1524C42.1642 16.9196 42.067 17.7409 42.1588 18.552C42.9329 22.5901 43.7199 25.9444 43.5909 29.789C43.965 29.789 44.3908 28.9504 44.5714 28.1118V28.1247ZM52.6218 17.4554C53.0604 17.6747 53.3055 18.8745 53.2668 19.21C53.1765 19.8421 52.9443 20.5001 52.7766 20.4227C52.6088 20.3453 52.8153 19.4938 52.725 19.2358C52.6347 18.8616 52.0541 18.1908 52.1057 17.9843C51.9896 17.5715 52.3637 17.3909 52.6218 17.4683V17.4554ZM20.6654 25.9444C21.0782 26.1121 21.3104 26.9765 21.2717 27.2345C21.1943 27.699 20.975 28.1892 20.8202 28.1376C20.6525 28.0731 20.846 27.4539 20.7686 27.2603C20.7299 26.783 20.1622 26.5379 20.1751 26.3444C20.0719 25.9573 20.4202 25.8928 20.6654 25.9573V25.9444Z" fill="white"/>
<path fill-rule="evenodd" clip-rule="evenodd" d="M30.6122 27.2732C31.1283 27.299 31.3992 27.7248 30.9089 27.8925C30.4187 28.0602 29.9414 28.1892 29.9414 28.8988C30.122 29.8922 29.6833 29.5439 29.4253 29.4149C29.1286 29.1955 28.2771 28.6795 28.161 27.5442C28.1481 27.2861 28.3545 27.0539 28.6899 27.0539C29.206 27.1829 29.9543 27.2087 30.5993 27.2732H30.6122Z" fill="#165D31"/>
<path fill-rule="evenodd" clip-rule="evenodd" d="M9.67349 15.546C10.2798 15.7266 10.3186 16.6168 10.2669 16.8877C10.1895 17.3651 9.97022 17.8682 9.8154 17.8037C9.64769 17.7521 9.8154 17.1071 9.738 16.9006C9.64769 16.6168 9.13164 16.1008 9.19614 15.9459C9.06713 15.6363 9.42837 15.4944 9.67349 15.5589V15.546ZM21.6587 19.7518C21.1943 20.0098 21.0137 20.7581 21.2975 21.1968C21.5684 21.5838 21.9942 21.4419 22.0587 21.4419C22.5102 21.4935 22.7812 20.5775 22.7812 20.5775C22.7812 20.5775 22.7941 20.3195 22.2651 20.8097C22.0329 20.8484 22.0071 20.771 21.9426 20.642C21.8876 20.3993 21.9148 20.1451 22.02 19.9195C22.0974 19.7002 21.9168 19.597 21.6587 19.7518ZM25.1421 15.1977C24.9228 15.3654 24.4454 15.8427 24.4325 16.3975C24.4325 16.7071 24.368 16.7071 24.5615 16.9135C24.7163 17.12 24.8712 17.1071 25.1679 16.9522C25.2417 16.9044 25.305 16.8419 25.3538 16.7687C25.4026 16.6955 25.4359 16.6131 25.4517 16.5265C25.5291 16.1653 25.0776 16.6942 25.026 16.2943C24.9228 15.933 25.2066 15.7782 25.4775 15.417C25.4775 15.1719 25.4775 15.0042 25.155 15.1977H25.1421ZM27.9675 15.7137C27.855 16.1663 27.7858 16.6285 27.761 17.0942C27.6836 17.4425 28.1223 17.5844 28.3287 17.1329C28.6254 16.3201 28.6254 15.9717 28.6512 15.6234C28.5609 15.1074 28.1997 15.1074 27.9675 15.7008V15.7137ZM45.7067 24.7317C45.7583 24.6672 48.2095 22.9255 48.2095 22.9255C48.4546 22.8481 48.403 23.8286 48.2869 23.8286C47.5299 24.5624 46.6584 25.1681 45.7067 25.6219C45.5777 25.6993 45.4616 24.951 45.7067 24.7188V24.7317ZM47.9257 24.7188C48.3514 24.9252 48.532 26.1895 48.4804 26.525C48.4933 27.1958 48.0676 27.7248 47.8999 27.6345C47.7193 27.5571 47.9128 26.8088 47.8354 26.5508C47.7451 26.1766 47.3709 25.48 47.4354 25.2864C47.3064 24.8607 47.6677 24.6414 47.9257 24.7188ZM33.4247 30.1373C33.5924 29.8793 34.1085 29.531 34.1214 29.531C34.3665 29.4019 34.5987 29.6213 34.5858 29.6084C34.6245 29.8535 34.431 30.0728 34.4955 30.3953C34.5471 30.5244 34.5858 30.6663 34.8309 30.6147C35.218 30.3179 35.5792 30.2921 35.9662 30.2663C36.263 30.2921 36.263 30.7824 36.0823 30.7953C35.3599 30.9501 35.0502 31.1436 34.5342 31.3371C34.2891 31.479 34.0827 31.2984 34.0827 31.2855C34.0827 31.2726 33.9536 31.1436 34.0439 30.8211C34.0568 30.5631 33.9536 30.434 33.7472 30.4598C33.5795 30.5373 33.4376 30.5889 33.3602 30.4082C33.3215 30.2792 33.3215 30.2147 33.4247 30.1373ZM50.493 30.8082C50.5963 30.9372 50.6737 31.0662 50.493 31.2855L50.0286 31.6726C49.9383 31.8274 49.8996 32.0338 50.1447 32.0983C50.5963 32.2273 51.6542 31.5436 51.6542 31.5306C51.8219 31.4016 51.7703 31.1565 51.7445 31.1565C51.6542 31.0404 51.4219 31.1049 51.28 31.092C51.2026 31.092 50.9704 31.0533 51.0736 30.8469C51.1768 30.7179 51.2026 30.6405 51.2671 30.4727C51.3445 30.3179 51.28 30.2147 51.022 30.1244C50.764 30.0857 50.6608 30.1115 50.3769 30.1244C50.2092 30.1631 50.1576 30.2276 50.1189 30.4211C50.1447 30.705 50.3124 30.6921 50.5059 30.8082H50.493Z" fill="white"/>
<path fill-rule="evenodd" clip-rule="evenodd" d="M33.515 23.7125C33.4505 23.8415 33.2183 23.8286 32.9989 23.7125C32.7796 23.5964 32.6764 23.39 32.7409 23.2738C32.8054 23.1577 33.0376 23.1577 33.257 23.2738C33.4763 23.39 33.5795 23.5964 33.515 23.7125ZM22.3812 17.0296C22.2522 17.0683 22.0845 16.9522 22.0071 16.7716C21.9297 16.591 21.9684 16.4491 22.0974 16.4104C22.2264 16.3717 22.3941 16.5007 22.4715 16.6684C22.5489 16.8361 22.5102 17.0038 22.3812 17.0296ZM44.4037 46.8702C45.5648 46.9218 46.6743 46.8831 47.8354 46.9476C48.0547 47.1154 47.8999 47.5669 47.758 47.5282L46.7775 47.5024C46.7775 47.1283 45.8099 47.1928 45.8486 47.5153C45.3325 47.5798 44.8681 47.5024 44.352 47.4766C44.1972 47.2831 44.223 46.9476 44.4037 46.8702Z" fill="#165D31"/>
</g>
</g>
<defs>
<clipPath id="clip0_66_15042">
<rect width="64" height="64" rx="32" fill="white"/>
</clipPath>
</defs>
</svg>
