<svg width="24" height="25" viewBox="0 0 24 25" fill="none" xmlns="http://www.w3.org/2000/svg">
<path fill-rule="evenodd" clip-rule="evenodd" d="M5 10.0033C5.55228 10.0033 6 10.451 6 11.0033V16.0083C6 16.5606 5.55228 17.0083 5 17.0083C4.44772 17.0083 4 16.5606 4 16.0083V11.0033C4 10.451 4.44772 10.0033 5 10.0033Z" fill="white"/>
<path fill-rule="evenodd" clip-rule="evenodd" d="M8.5 8.33496C9.05228 8.33496 9.5 8.78268 9.5 9.33496V17.6649C9.5 18.2172 9.05228 18.6649 8.5 18.6649C7.94772 18.6649 7.5 18.2172 7.5 17.6649V9.33496C7.5 8.78268 7.94772 8.33496 8.5 8.33496Z" fill="white"/>
<path fill-rule="evenodd" clip-rule="evenodd" d="M12 6.66675C12.5523 6.66675 13 7.11446 13 7.66675V19.3334C13 19.8857 12.5523 20.3334 12 20.3334C11.4477 20.3334 11 19.8857 11 19.3334V7.66675C11 7.11446 11.4477 6.66675 12 6.66675Z" fill="white"/>
<path fill-rule="evenodd" clip-rule="evenodd" d="M15.5 8.33496C16.0523 8.33496 16.5 8.78268 16.5 9.33496V17.6649C16.5 18.2172 16.0523 18.6649 15.5 18.6649C14.9477 18.6649 14.5 18.2172 14.5 17.6649V9.33496C14.5 8.78268 14.9477 8.33496 15.5 8.33496Z" fill="white"/>
<path fill-rule="evenodd" clip-rule="evenodd" d="M19 10.0033C19.5523 10.0033 20 10.451 20 11.0033V16.0083C20 16.5606 19.5523 17.0083 19 17.0083C18.4477 17.0083 18 16.5606 18 16.0083V11.0033C18 10.451 18.4477 10.0033 19 10.0033Z" fill="white"/>
</svg>
