<svg width="24" height="25" viewBox="0 0 24 25" fill="none" xmlns="http://www.w3.org/2000/svg">
<path d="M19.7397 5.19683C19.3927 4.84975 18.8299 4.84975 18.4828 5.19683L12 11.6797L5.51718 5.19683C5.17011 4.84975 4.60738 4.84975 4.26031 5.19683C3.91323 5.54391 3.91323 6.10663 4.26031 6.4537L10.7431 12.9365L4.26033 19.4193C3.91325 19.7664 3.91325 20.3291 4.26033 20.6762C4.6074 21.0233 5.17013 21.0233 5.5172 20.6762L12 14.1934L18.4828 20.6762C18.8299 21.0233 19.3927 21.0233 19.7397 20.6762C20.0868 20.3291 20.0868 19.7664 19.7397 19.4194L13.2569 12.9365L19.7397 6.4537C20.0868 6.10663 20.0868 5.54391 19.7397 5.19683Z" fill="white"/>
</svg>
