<svg width="24" height="25" viewBox="0 0 24 25" fill="none" xmlns="http://www.w3.org/2000/svg">
<path d="M7.00739 12.9365C7.00739 12.5223 7.34317 12.1865 7.75739 12.1865H11.25V8.69388C11.25 8.27966 11.5858 7.94388 12 7.94388C12.4142 7.94388 12.75 8.27966 12.75 8.69388V12.1865H16.2427C16.6569 12.1865 16.9927 12.5223 16.9927 12.9365C16.9927 13.3507 16.6569 13.6865 16.2427 13.6865H12.75V17.1792C12.75 17.5934 12.4142 17.9292 12 17.9292C11.5858 17.9292 11.25 17.5934 11.25 17.1792V13.6865H7.75739C7.34317 13.6865 7.00739 13.3507 7.00739 12.9365Z" fill="white"/>
<path fill-rule="evenodd" clip-rule="evenodd" d="M7.31673 4.70528C10.4043 4.3602 13.5957 4.3602 16.6832 4.70528C18.5096 4.90941 19.9845 6.34805 20.1994 8.18501C20.5686 11.3419 20.5686 14.5311 20.1994 17.688C19.9845 19.525 18.5096 20.9637 16.6832 21.1678C13.5957 21.5129 10.4043 21.5129 7.31673 21.1678C5.49035 20.9637 4.01545 19.525 3.8006 17.688C3.43137 14.5311 3.43137 11.3419 3.8006 8.18501C4.01545 6.34805 5.49035 4.90941 7.31673 4.70528ZM16.5166 6.196C13.5398 5.8633 10.4602 5.8633 7.48334 6.196C6.33891 6.32391 5.42286 7.22715 5.29045 8.35926C4.93476 11.4004 4.93476 14.4726 5.29045 17.5138C5.42286 18.6459 6.33891 19.5492 7.48334 19.6771C10.4602 20.0098 13.5398 20.0098 16.5166 19.6771C17.6611 19.5492 18.5771 18.6459 18.7095 17.5138C19.0652 14.4726 19.0652 11.4004 18.7095 8.35926C18.5771 7.22715 17.6611 6.32391 16.5166 6.196Z" fill="white"/>
</svg>
