<svg width="24" height="25" viewBox="0 0 24 25" fill="none" xmlns="http://www.w3.org/2000/svg">
<path fill-rule="evenodd" clip-rule="evenodd" d="M2 7C2 6.44772 2.44772 6 3 6H21C21.5523 6 22 6.44772 22 7C22 7.55228 21.5523 8 21 8H3C2.44772 8 2 7.55228 2 7Z" fill="white"/>
<path fill-rule="evenodd" clip-rule="evenodd" d="M10 4C9.73478 4 9.48043 4.10536 9.29289 4.29289C9.10536 4.48043 9 4.73478 9 5V7C9 7.55228 8.55228 8 8 8C7.44772 8 7 7.55228 7 7V5C7 4.20435 7.31607 3.44129 7.87868 2.87868C8.44129 2.31607 9.20435 2 10 2H14C14.7956 2 15.5587 2.31607 16.1213 2.87868C16.6839 3.44129 17 4.20435 17 5V7C17 7.55228 16.5523 8 16 8C15.4477 8 15 7.55228 15 7V5C15 4.73478 14.8946 4.48043 14.7071 4.29289C14.5196 4.10536 14.2652 4 14 4H10ZM5 6C5.55228 6 6 6.44772 6 7V21C6 21.2652 6.10536 21.5196 6.29289 21.7071C6.48043 21.8946 6.73478 22 7 22H17C17.2652 22 17.5196 21.8946 17.7071 21.7071C17.8946 21.5196 18 21.2652 18 21V7C18 6.44772 18.4477 6 19 6C19.5523 6 20 6.44772 20 7V21C20 21.7957 19.6839 22.5587 19.1213 23.1213C18.5587 23.6839 17.7957 24 17 24H7C6.20435 24 5.44129 23.6839 4.87868 23.1213C4.31607 22.5587 4 21.7957 4 21V7C4 6.44772 4.44772 6 5 6Z" fill="white"/>
<path fill-rule="evenodd" clip-rule="evenodd" d="M10 11C10.5523 11 11 11.4477 11 12V18C11 18.5523 10.5523 19 10 19C9.44772 19 9 18.5523 9 18V12C9 11.4477 9.44772 11 10 11Z" fill="white"/>
<path fill-rule="evenodd" clip-rule="evenodd" d="M14 11C14.5523 11 15 11.4477 15 12V18C15 18.5523 14.5523 19 14 19C13.4477 19 13 18.5523 13 18V12C13 11.4477 13.4477 11 14 11Z" fill="white"/>
</svg>
