<svg width="24" height="25" viewBox="0 0 24 25" fill="none" xmlns="http://www.w3.org/2000/svg">
<path d="M5.75 17.9365C5.75 17.5223 5.41421 17.1865 5 17.1865C4.58579 17.1865 4.25 17.5223 4.25 17.9365V19.9365C4.25 20.903 5.0335 21.6865 6 21.6865H18C18.9665 21.6865 19.75 20.903 19.75 19.9365V17.9365C19.75 17.5223 19.4142 17.1865 19 17.1865C18.5858 17.1865 18.25 17.5223 18.25 17.9365V19.9365C18.25 20.0746 18.1381 20.1865 18 20.1865H6C5.86193 20.1865 5.75 20.0746 5.75 19.9365V17.9365Z" fill="white"/>
<path fill-rule="evenodd" clip-rule="evenodd" d="M13.2622 4.21133C14.0358 4.21133 14.6811 4.80256 14.7486 5.57321C14.8899 7.1845 14.9256 8.80297 14.8558 10.4183C14.9401 10.4239 15.0244 10.4298 15.1087 10.436L16.5983 10.5445C17.5503 10.6139 18.0825 11.6755 17.5685 12.4799C16.4723 14.1954 14.4631 16.1154 12.8097 17.3032C12.3258 17.6507 11.6742 17.6507 11.1904 17.3032C9.53692 16.1154 7.52769 14.1954 6.43151 12.4799C5.91752 11.6755 6.44972 10.6139 7.40178 10.5445L8.89133 10.436C8.97563 10.4298 9.05994 10.4239 9.14427 10.4183C9.07441 8.80297 9.11015 7.1845 9.2514 5.57321C9.31895 4.80256 9.96427 4.21133 10.7379 4.21133L13.2622 4.21133ZM13.3185 11.0761C13.4323 9.28884 13.411 7.49551 13.255 5.71133L10.745 5.71133C10.589 7.49551 10.5678 9.28884 10.6815 11.0761C10.6942 11.2764 10.6261 11.4735 10.4924 11.6233C10.3586 11.773 10.1704 11.8629 9.9699 11.8728C9.64656 11.8887 9.32336 11.9084 9.00038 11.932L7.91857 12.0108C8.87812 13.4241 10.0796 14.6584 11.4687 15.6562L12 16.0379L12.5313 15.6562C13.9204 14.6584 15.1219 13.4241 16.0815 12.0108L14.9996 11.932C14.6767 11.9084 14.3535 11.8887 14.0301 11.8728C13.8296 11.8629 13.6414 11.773 13.5077 11.6233C13.3739 11.4735 13.3058 11.2764 13.3185 11.0761Z" fill="white"/>
</svg>
