<svg width="24" height="25" viewBox="0 0 24 25" fill="none" xmlns="http://www.w3.org/2000/svg">
<path fill-rule="evenodd" clip-rule="evenodd" d="M11 11C10.4477 11 10 11.4477 10 12V21C10 21.5523 10.4477 22 11 22H20C20.5523 22 21 21.5523 21 21V12C21 11.4477 20.5523 11 20 11H11ZM8 12C8 10.3431 9.34315 9 11 9H20C21.6569 9 23 10.3431 23 12V21C23 22.6569 21.6569 24 20 24H11C9.34315 24 8 22.6569 8 21V12Z" fill="white"/>
<path fill-rule="evenodd" clip-rule="evenodd" d="M4 4C3.73478 4 3.48043 4.10536 3.29289 4.29289C3.10536 4.48043 3 4.73478 3 5V14C3 14.2652 3.10536 14.5196 3.29289 14.7071C3.48043 14.8946 3.73478 15 4 15H5C5.55228 15 6 15.4477 6 16C6 16.5523 5.55228 17 5 17H4C3.20435 17 2.44129 16.6839 1.87868 16.1213C1.31607 15.5587 1 14.7956 1 14V5C1 4.20435 1.31607 3.44129 1.87868 2.87868C2.44129 2.31607 3.20435 2 4 2H13C13.7956 2 14.5587 2.31607 15.1213 2.87868C15.6839 3.44129 16 4.20435 16 5V6C16 6.55228 15.5523 7 15 7C14.4477 7 14 6.55228 14 6V5C14 4.73478 13.8946 4.48043 13.7071 4.29289C13.5196 4.10536 13.2652 4 13 4H4Z" fill="white"/>
</svg>
