<svg width="24" height="25" viewBox="0 0 24 25" fill="none" xmlns="http://www.w3.org/2000/svg">
<path fill-rule="evenodd" clip-rule="evenodd" d="M1.87868 4.87868C2.44129 4.31607 3.20435 4 4 4H11C11.5523 4 12 4.44772 12 5C12 5.55228 11.5523 6 11 6H4C3.73478 6 3.48043 6.10536 3.29289 6.29289C3.10536 6.48043 3 6.73478 3 7V21C3 21.2652 3.10536 21.5196 3.29289 21.7071C3.48043 21.8946 3.73478 22 4 22H18C18.2652 22 18.5196 21.8946 18.7071 21.7071C18.8946 21.5196 19 21.2652 19 21V14C19 13.4477 19.4477 13 20 13C20.5523 13 21 13.4477 21 14V21C21 21.7957 20.6839 22.5587 20.1213 23.1213C19.5587 23.6839 18.7957 24 18 24H4C3.20435 24 2.44129 23.6839 1.87868 23.1213C1.31607 22.5587 1 21.7957 1 21V7C1 6.20435 1.31607 5.44129 1.87868 4.87868Z" fill="white"/>
<path fill-rule="evenodd" clip-rule="evenodd" d="M20 3.87869C19.7026 3.87869 19.4174 3.99683 19.2071 4.20712L9.90295 13.5113L9.37436 15.6256L11.4887 15.097L20.7929 5.79291C21.0032 5.58262 21.1213 5.29741 21.1213 5.00001C21.1213 4.70262 21.0032 4.41741 20.7929 4.20712C20.5826 3.99683 20.2974 3.87869 20 3.87869ZM17.7929 2.79291C18.3782 2.20755 19.1722 1.87869 20 1.87869C20.8278 1.87869 21.6217 2.20755 22.2071 2.79291C22.7925 3.37827 23.1213 4.17219 23.1213 5.00001C23.1213 5.82784 22.7925 6.62176 22.2071 7.20712L12.7071 16.7071C12.5789 16.8353 12.4184 16.9262 12.2425 16.9702L8.24253 17.9702C7.90175 18.0553 7.54126 17.9555 7.29288 17.7071C7.0445 17.4587 6.94465 17.0983 7.02985 16.7575L8.02985 12.7575C8.07381 12.5816 8.16473 12.4211 8.29288 12.2929L17.7929 2.79291Z" fill="white"/>
</svg>
