<svg width="24" height="25" viewBox="0 0 24 25" fill="none" xmlns="http://www.w3.org/2000/svg">
<g clip-path="url(#clip0_131_67566)">
<path d="M24 13.0725C23.9992 6.40499 18.6274 1 12 1C5.37263 1 0 6.4058 0 13.0741C0 19.0765 4.35316 24.0556 10.0555 24.9903L10.1243 25V16.5636H7.07709V13.0725H10.1243V10.4138C10.1091 10.2794 10.1011 10.1232 10.1011 9.96538C10.1011 7.61192 11.9976 5.7037 14.3366 5.7037C14.4495 5.7037 14.5615 5.70853 14.6727 5.71659L14.6583 5.71578C15.6178 5.72947 16.546 5.81481 17.4519 5.96699L17.3446 5.95169V8.92271H15.8306C15.7618 8.91304 15.6826 8.90741 15.6026 8.90741C14.6447 8.90741 13.8677 9.68841 13.8677 10.653C13.8677 10.7077 13.8701 10.7617 13.8749 10.8156L13.8741 10.8084V13.0725H17.2022L16.67 16.5636H13.8741V25C19.646 24.0548 23.9992 19.0749 24 13.0725Z" fill="white"/>
</g>
<defs>
<clipPath id="clip0_131_67566">
<rect width="24" height="24" fill="white" transform="translate(0 0.936523)"/>
</clipPath>
</defs>
</svg>
