<svg width="24" height="25" viewBox="0 0 24 25" fill="none" xmlns="http://www.w3.org/2000/svg">
<path fill-rule="evenodd" clip-rule="evenodd" d="M10.4864 5.05065C11.1608 3.88839 12.8392 3.88839 13.5136 5.05065L15.579 8.61002C15.7694 8.9381 16.0984 9.16199 16.4735 9.21864L19.9031 9.73665C21.3981 9.96245 21.9225 11.85 20.7582 12.8146L18.2593 14.8849C17.9086 15.1755 17.7437 15.6339 17.8289 16.0813L18.5289 19.7573C18.8031 21.1972 17.2914 22.316 15.9944 21.6331L12.5824 19.8365C12.2179 19.6446 11.7822 19.6446 11.4176 19.8365L8.0056 21.6331C6.70859 22.316 5.19696 21.1972 5.47116 19.7573L6.17114 16.0813C6.25634 15.6339 6.09142 15.1755 5.74068 14.8849L3.24178 12.8146C2.0775 11.85 2.6019 9.96245 4.09689 9.73664L7.52654 9.21864C7.9016 9.16199 8.23065 8.9381 8.42103 8.61001L10.4864 5.05065ZM12.2162 5.80348C12.1199 5.63744 11.8801 5.63745 11.7838 5.80348L9.71843 9.36284C9.29961 10.0846 8.5757 10.5772 7.75056 10.7018L4.32091 11.2198C4.10734 11.2521 4.03243 11.5217 4.19875 11.6595L6.69765 13.7298C7.46929 14.3691 7.83211 15.3775 7.64466 16.3619L6.94468 20.0379C6.90551 20.2436 7.12146 20.4034 7.30675 20.3059L10.7188 18.5093C11.5207 18.087 12.4793 18.087 13.2812 18.5093L16.6933 20.3059C16.8786 20.4034 17.0945 20.2436 17.0553 20.0379L16.3554 16.3619C16.1679 15.3775 16.5307 14.3691 17.3024 13.7298L19.8013 11.6595C19.9676 11.5217 19.8927 11.2521 19.6791 11.2198L16.2495 10.7018C15.4243 10.5772 14.7004 10.0846 14.2816 9.36284L12.2162 5.80348Z" fill="white"/>
</svg>
