<svg width="24" height="25" viewBox="0 0 24 25" fill="none" xmlns="http://www.w3.org/2000/svg">
<path d="M11.5 18.1865V12.4865V18.1865Z" fill="white"/>
<path d="M11.5 18.1865V12.4865" stroke="white" stroke-width="2" stroke-linecap="round"/>
<path d="M11.5 8.68652C12.0247 8.68652 12.45 9.11185 12.45 9.63652C12.45 10.1612 12.0247 10.5865 11.5 10.5865C10.9753 10.5865 10.55 10.1612 10.55 9.63652C10.55 9.11185 10.9753 8.68652 11.5 8.68652Z" fill="white"/>
<path d="M6.75 5.20745C8.14733 4.39914 9.76967 3.93652 11.5 3.93652C16.7467 3.93652 21 8.18982 21 13.4365C21 18.6832 16.7467 22.9365 11.5 22.9365C6.25329 22.9365 2 18.6832 2 13.4365C2 11.7062 2.46262 10.0838 3.27093 8.68652" stroke="white" stroke-width="1.5" stroke-linecap="round"/>
</svg>
