<svg width="24" height="25" viewBox="0 0 24 25" fill="none" xmlns="http://www.w3.org/2000/svg">
<path fill-rule="evenodd" clip-rule="evenodd" d="M7.25 3.5C4.76472 3.5 2.75 5.51472 2.75 8V18C2.75 20.4853 4.76472 22.5 7.25 22.5H17.25C19.7353 22.5 21.75 20.4853 21.75 18V8C21.75 5.51472 19.7353 3.5 17.25 3.5H7.25ZM1.75 8C1.75 4.96243 4.21243 2.5 7.25 2.5H17.25C20.2876 2.5 22.75 4.96243 22.75 8V18C22.75 21.0376 20.2876 23.5 17.25 23.5H7.25C4.21243 23.5 1.75 21.0376 1.75 18V8Z" fill="white"/>
<path fill-rule="evenodd" clip-rule="evenodd" d="M1.5 8C1.5 4.82436 4.07436 2.25 7.25 2.25H17.25C20.4256 2.25 23 4.82436 23 8V18C23 21.1756 20.4256 23.75 17.25 23.75H7.25C4.07436 23.75 1.5 21.1756 1.5 18V8ZM7.25 2.75C4.35051 2.75 2 5.10051 2 8V18C2 20.8995 4.3505 23.25 7.25 23.25H17.25C20.1495 23.25 22.5 20.8995 22.5 18V8C22.5 5.1005 20.1495 2.75 17.25 2.75H7.25ZM7.25 3.75C4.90279 3.75 3 5.65279 3 8V18C3 20.3472 4.90279 22.25 7.25 22.25H17.25C19.5972 22.25 21.5 20.3472 21.5 18V8C21.5 5.65279 19.5972 3.75 17.25 3.75H7.25ZM2.5 8C2.5 5.37665 4.62665 3.25 7.25 3.25H17.25C19.8734 3.25 22 5.37665 22 8V18C22 20.6234 19.8734 22.75 17.25 22.75H7.25C4.62665 22.75 2.5 20.6234 2.5 18V8Z" fill="white"/>
<path fill-rule="evenodd" clip-rule="evenodd" d="M12.8067 9.49459C12.0784 9.38661 11.3347 9.51099 10.6813 9.85005C10.0278 10.1891 9.49792 10.7256 9.16694 11.3832C8.83597 12.0407 8.72076 12.786 8.83772 13.5128C8.95467 14.2396 9.29783 14.9111 9.81839 15.4316C10.3389 15.9522 11.0104 16.2953 11.7372 16.4123C12.464 16.5292 13.2093 16.414 13.8668 16.0831C14.5244 15.7521 15.0609 15.2222 15.3999 14.5687C15.739 13.9153 15.8634 13.1716 15.7554 12.4433C15.6453 11.7005 15.2991 11.0128 14.7681 10.4819C14.2372 9.95087 13.5495 9.60474 12.8067 9.49459ZM10.2207 8.96243C11.0608 8.52649 12.0171 8.36657 12.9533 8.50541C13.9084 8.64703 14.7925 9.09205 15.4752 9.77475C16.1579 10.4575 16.603 11.3416 16.7446 12.2967C16.8834 13.2329 16.7235 14.1892 16.2876 15.0293C15.8516 15.8694 15.1619 16.5507 14.3164 16.9763C13.471 17.4018 12.5128 17.55 11.5784 17.3996C10.6439 17.2492 9.78057 16.808 9.11129 16.1387C8.442 15.4694 8.00079 14.6061 7.85042 13.6716C7.70005 12.7372 7.84817 11.779 8.27371 10.9336C8.69925 10.0881 9.38055 9.39837 10.2207 8.96243Z" fill="white"/>
<path fill-rule="evenodd" clip-rule="evenodd" d="M10.1056 8.74052C10.9924 8.28037 12.0017 8.11156 12.99 8.25811C13.9981 8.4076 14.9314 8.87735 15.652 9.59798C16.3726 10.3186 16.8424 11.2519 16.9919 12.26C17.1384 13.2483 16.9696 14.2576 16.5095 15.1444C16.0493 16.0313 15.3212 16.7504 14.4288 17.1996C13.5364 17.6488 12.525 17.8051 11.5386 17.6464C10.5522 17.4877 9.64098 17.022 8.93451 16.3155C8.22804 15.609 7.76232 14.6978 7.60359 13.7114C7.44487 12.725 7.60121 11.7136 8.0504 10.8212C8.49958 9.92875 9.21873 9.20068 10.1056 8.74052ZM12.9167 8.7527C12.0324 8.62158 11.1293 8.77262 10.3358 9.18434C9.54237 9.59605 8.89892 10.2475 8.49702 11.046C8.09512 11.8445 7.95522 12.7494 8.09724 13.6319C8.23926 14.5145 8.65596 15.3298 9.28806 15.9619C9.92017 16.594 10.7355 17.0107 11.6181 17.1528C12.5006 17.2948 13.4055 17.1549 14.204 16.753C15.0025 16.3511 15.6539 15.7076 16.0657 14.9142C16.4774 14.1207 16.6284 13.2176 16.4973 12.3333C16.3635 11.4313 15.9432 10.5963 15.2985 9.95153C14.6537 9.30676 13.8187 8.88646 12.9167 8.7527ZM12.77 9.74189C12.0938 9.64162 11.4032 9.75712 10.7964 10.072C10.1896 10.3868 9.69759 10.885 9.39025 11.4956C9.08291 12.1062 8.97594 12.7981 9.08454 13.4731C9.19314 14.148 9.51179 14.7715 9.99517 15.2548C10.4785 15.7382 11.102 16.0569 11.7769 16.1655C12.4519 16.2741 13.1438 16.1671 13.7544 15.8597C14.365 15.5524 14.8632 15.0604 15.178 14.4536C15.4929 13.8468 15.6084 13.1562 15.5081 12.48C15.4058 11.7903 15.0844 11.1517 14.5914 10.6586C14.0983 10.1656 13.4597 9.84417 12.77 9.74189ZM10.5661 9.62815C11.2663 9.26487 12.0631 9.1316 12.8433 9.2473C13.6392 9.36531 14.376 9.73617 14.9449 10.3051C15.5138 10.874 15.8847 11.6108 16.0027 12.4067C16.1184 13.1869 15.9851 13.9837 15.6219 14.6839C15.2586 15.384 14.6838 15.9517 13.9792 16.3064C13.2747 16.661 12.4762 16.7844 11.6975 16.6591C10.9188 16.5338 10.1994 16.1661 9.64161 15.6084C9.08388 15.0506 8.7162 14.3312 8.59089 13.5525C8.46558 12.7738 8.58902 11.9753 8.94363 11.2708C9.29825 10.5662 9.866 9.99143 10.5661 9.62815Z" fill="white"/>
<path fill-rule="evenodd" clip-rule="evenodd" d="M16.75 7.5C16.75 6.94772 17.1977 6.5 17.75 6.5H17.76C18.3123 6.5 18.76 6.94772 18.76 7.5C18.76 8.05228 18.3123 8.5 17.76 8.5H17.75C17.1977 8.5 16.75 8.05228 16.75 7.5Z" fill="white"/>
<path fill-rule="evenodd" clip-rule="evenodd" d="M16.5 7.5C16.5 6.80964 17.0596 6.25 17.75 6.25H17.76C18.4504 6.25 19.01 6.80964 19.01 7.5C19.01 8.19036 18.4504 8.75 17.76 8.75H17.75C17.0596 8.75 16.5 8.19036 16.5 7.5ZM17.75 6.75C17.3358 6.75 17 7.08579 17 7.5C17 7.91421 17.3358 8.25 17.75 8.25H17.76C18.1742 8.25 18.51 7.91421 18.51 7.5C18.51 7.08579 18.1742 6.75 17.76 6.75H17.75Z" fill="white"/>
</svg>
