<svg width="24" height="25" viewBox="0 0 24 25" fill="none" xmlns="http://www.w3.org/2000/svg">
<path fill-rule="evenodd" clip-rule="evenodd" d="M11.5 4C6.80558 4 3 7.80558 3 12.5C3 17.1944 6.80558 21 11.5 21C16.1944 21 20 17.1944 20 12.5C20 7.80558 16.1944 4 11.5 4ZM1 12.5C1 6.70101 5.70101 2 11.5 2C17.299 2 22 6.70101 22 12.5C22 18.299 17.299 23 11.5 23C5.70101 23 1 18.299 1 12.5Z" fill="white"/>
<path fill-rule="evenodd" clip-rule="evenodd" d="M1 13C1 12.4477 1.44772 12 2 12H21C21.5523 12 22 12.4477 22 13C22 13.5523 21.5523 14 21 14H2C1.44772 14 1 13.5523 1 13Z" fill="white"/>
<path fill-rule="evenodd" clip-rule="evenodd" d="M11.5 2C11.7951 2 12.0752 2.13038 12.2652 2.35622C14.6069 5.13963 15.928 8.73834 15.9998 12.4808C16.0001 12.4936 16.0001 12.5064 15.9998 12.5192C15.928 16.2617 14.6069 19.8604 12.2652 22.6438C12.0752 22.8696 11.7951 23 11.5 23C11.2049 23 10.9248 22.8696 10.7348 22.6438C8.39307 19.8604 7.07199 16.2617 7.00018 12.5192C6.99994 12.5064 6.99994 12.4936 7.00018 12.4808C7.07199 8.73834 8.39307 5.13963 10.7348 2.35622C10.9248 2.13038 11.2049 2 11.5 2ZM9.0002 12.5C9.05872 15.3567 9.94251 18.1007 11.5 20.3537C13.0575 18.1007 13.9413 15.3567 13.9998 12.5C13.9413 9.64331 13.0575 6.89926 11.5 4.64628C9.94251 6.89926 9.05872 9.64331 9.0002 12.5Z" fill="white"/>
</svg>
