<svg width="24" height="25" viewBox="0 0 24 25" fill="none" xmlns="http://www.w3.org/2000/svg">
<path d="M12 2.18652C12.4142 2.18652 12.75 2.52231 12.75 2.93652V3.93652C12.75 4.35074 12.4142 4.68652 12 4.68652C11.5858 4.68652 11.25 4.35074 11.25 3.93652V2.93652C11.25 2.52231 11.5858 2.18652 12 2.18652Z" fill="white"/>
<path fill-rule="evenodd" clip-rule="evenodd" d="M6.25 12.9365C6.25 9.76089 8.82436 7.18652 12 7.18652C15.1756 7.18652 17.75 9.76089 17.75 12.9365C17.75 16.1122 15.1756 18.6865 12 18.6865C8.82436 18.6865 6.25 16.1122 6.25 12.9365ZM12 8.68652C9.65279 8.68652 7.75 10.5893 7.75 12.9365C7.75 15.2837 9.65279 17.1865 12 17.1865C14.3472 17.1865 16.25 15.2837 16.25 12.9365C16.25 10.5893 14.3472 8.68652 12 8.68652Z" fill="white"/>
<path d="M5.45928 5.33515C5.16638 5.04226 4.69151 5.04226 4.39862 5.33515C4.10572 5.62804 4.10572 6.10292 4.39862 6.39581L5.10572 7.10292C5.39862 7.39581 5.87349 7.39581 6.16638 7.10292C6.45928 6.81002 6.45928 6.33515 6.16638 6.04226L5.45928 5.33515Z" fill="white"/>
<path d="M22.75 12.9365C22.75 13.3507 22.4142 13.6865 22 13.6865H21C20.5858 13.6865 20.25 13.3507 20.25 12.9365C20.25 12.5223 20.5858 12.1865 21 12.1865H22C22.4142 12.1865 22.75 12.5223 22.75 12.9365Z" fill="white"/>
<path d="M19.6014 6.3958C19.8943 6.10291 19.8943 5.62803 19.6014 5.33514C19.3085 5.04225 18.8336 5.04225 18.5407 5.33514L17.8336 6.04225C17.5407 6.33514 17.5407 6.81001 17.8336 7.10291C18.1265 7.3958 18.6014 7.3958 18.8943 7.10291L19.6014 6.3958Z" fill="white"/>
<path d="M12 21.1865C12.4142 21.1865 12.75 21.5223 12.75 21.9365V22.9365C12.75 23.3507 12.4142 23.6865 12 23.6865C11.5858 23.6865 11.25 23.3507 11.25 22.9365V21.9365C11.25 21.5223 11.5858 21.1865 12 21.1865Z" fill="white"/>
<path d="M18.8943 18.7701C18.6014 18.4773 18.1266 18.4773 17.8337 18.7701C17.5408 19.063 17.5408 19.5379 17.8337 19.8308L18.5408 20.5379C18.8337 20.8308 19.3085 20.8308 19.6014 20.5379C19.8943 20.245 19.8943 19.7701 19.6014 19.4773L18.8943 18.7701Z" fill="white"/>
<path d="M3.75 12.9365C3.75 13.3507 3.41421 13.6865 3 13.6865H2C1.58579 13.6865 1.25 13.3507 1.25 12.9365C1.25 12.5223 1.58579 12.1865 2 12.1865H3C3.41421 12.1865 3.75 12.5223 3.75 12.9365Z" fill="white"/>
<path d="M6.16632 19.8308C6.45921 19.5379 6.45921 19.063 6.16632 18.7701C5.87342 18.4772 5.39855 18.4772 5.10566 18.7701L4.39855 19.4772C4.10566 19.7701 4.10566 20.245 4.39855 20.5379C4.69144 20.8308 5.16632 20.8308 5.45921 20.5379L6.16632 19.8308Z" fill="white"/>
</svg>
