<svg width="24" height="25" viewBox="0 0 24 25" fill="none" xmlns="http://www.w3.org/2000/svg">
<path fill-rule="evenodd" clip-rule="evenodd" d="M5.80001 12.3365C5.27534 12.3365 4.85001 12.7619 4.85001 13.2865V19.2365C4.85001 19.7612 5.27534 20.1865 5.80001 20.1865H17.7C18.2247 20.1865 18.65 19.7612 18.65 19.2365V13.2865C18.65 12.7619 18.2247 12.3365 17.7 12.3365H5.80001ZM3.35001 13.2865C3.35001 11.9334 4.44691 10.8365 5.80001 10.8365H17.7C19.0531 10.8365 20.15 11.9334 20.15 13.2865V19.2365C20.15 20.5896 19.0531 21.6865 17.7 21.6865H5.80001C4.44691 21.6865 3.35001 20.5896 3.35001 19.2365V13.2865Z" fill="white"/>
<path fill-rule="evenodd" clip-rule="evenodd" d="M11.75 4.68652C10.8217 4.68652 9.9315 5.05527 9.27513 5.71165C8.61875 6.36803 8.25 7.25827 8.25 8.18652V11.5865C8.25 12.0007 7.91421 12.3365 7.5 12.3365C7.08579 12.3365 6.75 12.0007 6.75 11.5865V8.18652C6.75 6.86044 7.27678 5.58867 8.21447 4.65099C9.15215 3.71331 10.4239 3.18652 11.75 3.18652C13.0761 3.18652 14.3479 3.71331 15.2855 4.65099C16.2232 5.58867 16.75 6.86044 16.75 8.18652V11.5865C16.75 12.0007 16.4142 12.3365 16 12.3365C15.5858 12.3365 15.25 12.0007 15.25 11.5865V8.18652C15.25 7.25827 14.8813 6.36803 14.2249 5.71165C13.5685 5.05527 12.6783 4.68652 11.75 4.68652Z" fill="white"/>
</svg>
