<svg width="24" height="25" viewBox="0 0 24 25" fill="none" xmlns="http://www.w3.org/2000/svg">
<path fill-rule="evenodd" clip-rule="evenodd" d="M11.4863 5.70444C7.72194 5.96797 4.75 9.10518 4.75 12.9365C4.75 16.9406 7.99594 20.1865 12 20.1865C15.2079 20.1865 17.9297 18.1027 18.8848 15.2152C18.1497 15.5189 17.3441 15.6865 16.5 15.6865C13.0482 15.6865 10.25 12.8883 10.25 9.43652C10.25 8.03738 10.7101 6.74561 11.4863 5.70444ZM3.25 12.9365C3.25 8.10403 7.16751 4.18652 12 4.18652C12.4496 4.18652 12.8918 4.2205 13.3239 4.28614C13.6229 4.33155 13.8654 4.55206 13.9388 4.84539C14.0123 5.13871 13.9025 5.44748 13.6602 5.62847C12.4992 6.49587 11.75 7.87861 11.75 9.43652C11.75 12.0599 13.8766 14.1865 16.5 14.1865C17.6342 14.1865 18.6738 13.7899 19.4905 13.1272C19.7252 12.9367 20.0513 12.9058 20.3176 13.0486C20.584 13.1915 20.7386 13.4803 20.7097 13.7811C20.2843 18.2177 16.5477 21.6865 12 21.6865C7.16751 21.6865 3.25 17.769 3.25 12.9365Z" fill="white"/>
</svg>
