<svg width="24" height="25" viewBox="0 0 24 25" fill="none" xmlns="http://www.w3.org/2000/svg">
<path fill-rule="evenodd" clip-rule="evenodd" d="M7.5 9.18652C7.5 6.83931 9.40279 4.93652 11.75 4.93652C14.0972 4.93652 16 6.83931 16 9.18652C16 11.5337 14.0972 13.4365 11.75 13.4365C9.40279 13.4365 7.5 11.5337 7.5 9.18652ZM11.75 6.43652C10.2312 6.43652 9 7.66774 9 9.18652C9 10.7053 10.2312 11.9365 11.75 11.9365C13.2688 11.9365 14.5 10.7053 14.5 9.18652C14.5 7.66774 13.2688 6.43652 11.75 6.43652Z" fill="white"/>
<path fill-rule="evenodd" clip-rule="evenodd" d="M7.75 16.4365C6.50736 16.4365 5.5 17.4439 5.5 18.6865V19.8748C5.5 19.8929 5.51311 19.9083 5.53097 19.9112C9.64972 20.5837 13.8503 20.5837 17.969 19.9112C17.9869 19.9083 18 19.8929 18 19.8748V18.6865C18 17.4439 16.9926 16.4365 15.75 16.4365H15.4091C15.3828 16.4365 15.3566 16.4407 15.3315 16.4489L14.466 16.7315C12.7012 17.3078 10.7988 17.3078 9.03398 16.7315L8.16847 16.4489C8.14342 16.4407 8.11722 16.4365 8.09087 16.4365H7.75ZM4 18.6865C4 16.6155 5.67893 14.9365 7.75 14.9365H8.09087C8.27536 14.9365 8.45869 14.9657 8.63407 15.023L9.49959 15.3056C10.9619 15.7831 12.5381 15.7831 14.0004 15.3056L14.8659 15.023C15.0413 14.9657 15.2246 14.9365 15.4091 14.9365H15.75C17.8211 14.9365 19.5 16.6155 19.5 18.6865V19.8748C19.5 20.628 18.9541 21.2703 18.2107 21.3916C13.9319 22.0902 9.5681 22.0902 5.28927 21.3916C4.54588 21.2703 4 20.628 4 19.8748V18.6865Z" fill="white"/>
</svg>
