<svg width="24" height="25" viewBox="0 0 24 25" fill="none" xmlns="http://www.w3.org/2000/svg">
<path fill-rule="evenodd" clip-rule="evenodd" d="M20.3613 19.516C19.9557 19.9066 19.4179 20.1577 18.8253 20.2001L17.1874 20.3173C13.7336 20.5644 10.2665 20.5644 6.81264 20.3173L5.29864 20.209C4.10261 20.1234 3.1161 19.2393 2.90058 18.0597C2.46392 15.6698 2.38916 13.2278 2.67882 10.8157L2.9513 8.54656C3.11301 7.19995 4.25541 6.18652 5.6117 6.18652H7.90327C9.02102 6.18652 9.95229 6.98498 10.1578 8.04264L18.4722 8.04264C19.7786 8.04264 20.8913 8.99186 21.0972 10.2819L21.1613 10.6833C21.1748 10.7677 21.1877 10.8521 21.2002 10.9365H21.5362C23.0086 10.9365 24.0209 12.4164 23.4873 13.7886L22.2378 17.0015C21.8498 17.9992 21.1989 18.8667 20.3613 19.516ZM19.616 10.5183L19.6801 10.9197C19.6809 10.9253 19.6818 10.9309 19.6827 10.9365H10.3705C9.23475 10.9365 8.21588 11.6347 7.80589 12.6938L5.47405 18.7177L5.40568 18.7128C4.8922 18.6761 4.46868 18.2965 4.37615 17.7901C3.96652 15.5481 3.89639 13.2573 4.16812 10.9945L4.4406 8.7254C4.51179 8.13263 5.01467 7.68652 5.6117 7.68652H7.90327C8.34331 7.68652 8.70003 8.04325 8.70003 8.48329C8.70003 9.06835 9.17432 9.54264 9.75939 9.54264H18.4722C19.0414 9.54264 19.5263 9.95623 19.616 10.5183ZM7.03921 18.8296C10.3822 19.0631 13.7376 19.0603 17.0804 18.8211L18.7183 18.704L18.9128 18.6858L18.9115 18.6833C19.792 18.1865 20.4734 17.4001 20.8398 16.4578L22.0893 13.245C22.2405 12.856 21.9536 12.4365 21.5362 12.4365H10.3705C9.85423 12.4365 9.3911 12.7539 9.20475 13.2353L7.03921 18.8296Z" fill="white"/>
</svg>
