<svg width="24" height="25" viewBox="0 0 24 25" fill="none" xmlns="http://www.w3.org/2000/svg">
<path fill-rule="evenodd" clip-rule="evenodd" d="M22.7071 3.79289C23.0976 4.18342 23.0976 4.81658 22.7071 5.20711L12.7071 15.2071C12.3166 15.5976 11.6834 15.5976 11.2929 15.2071L8.29289 12.2071C7.90237 11.8166 7.90237 11.1834 8.29289 10.7929C8.68342 10.4024 9.31658 10.4024 9.70711 10.7929L12 13.0858L21.2929 3.79289C21.6834 3.40237 22.3166 3.40237 22.7071 3.79289Z" fill="white"/>
<path fill-rule="evenodd" clip-rule="evenodd" d="M5 4.5C4.73478 4.5 4.48043 4.60536 4.29289 4.79289C4.10536 4.98043 4 5.23478 4 5.5V19.5C4 19.7652 4.10536 20.0196 4.29289 20.2071C4.48043 20.3946 4.73478 20.5 5 20.5H19C19.2652 20.5 19.5196 20.3946 19.7071 20.2071C19.8946 20.0196 20 19.7652 20 19.5V12.5C20 11.9477 20.4477 11.5 21 11.5C21.5523 11.5 22 11.9477 22 12.5V19.5C22 20.2957 21.6839 21.0587 21.1213 21.6213C20.5587 22.1839 19.7957 22.5 19 22.5H5C4.20435 22.5 3.44129 22.1839 2.87868 21.6213C2.31607 21.0587 2 20.2957 2 19.5V5.5C2 4.70435 2.31607 3.94129 2.87868 3.37868C3.44129 2.81607 4.20435 2.5 5 2.5H16C16.5523 2.5 17 2.94772 17 3.5C17 4.05228 16.5523 4.5 16 4.5H5Z" fill="white"/>
</svg>
