<svg width="24" height="25" viewBox="0 0 24 25" fill="none" xmlns="http://www.w3.org/2000/svg">
<path d="M16 9.66669C17.3807 9.66669 18.5 8.5474 18.5 7.16669C18.5 5.78598 17.3807 4.66669 16 4.66669C14.6193 4.66669 13.5 5.78598 13.5 7.16669C13.5 8.5474 14.6193 9.66669 16 9.66669Z" stroke="white" stroke-width="2" stroke-linecap="round" stroke-linejoin="round"/>
<path d="M6 15.5C7.38071 15.5 8.5 14.3807 8.5 13C8.5 11.6193 7.38071 10.5 6 10.5C4.61929 10.5 3.5 11.6193 3.5 13C3.5 14.3807 4.61929 15.5 6 15.5Z" stroke="white" stroke-width="2" stroke-linecap="round" stroke-linejoin="round"/>
<path d="M16 21.3333C17.3807 21.3333 18.5 20.214 18.5 18.8333C18.5 17.4526 17.3807 16.3333 16 16.3333C14.6193 16.3333 13.5 17.4526 13.5 18.8333C13.5 20.214 14.6193 21.3333 16 21.3333Z" stroke="white" stroke-width="2" stroke-linecap="round" stroke-linejoin="round"/>
<path d="M8.15833 14.2584L13.85 17.575" stroke="white" stroke-width="2" stroke-linecap="round" stroke-linejoin="round"/>
<path d="M13.8417 8.42499L8.15833 11.7417" stroke="white" stroke-width="2" stroke-linecap="round" stroke-linejoin="round"/>
</svg>
