<svg width="24" height="25" viewBox="0 0 24 25" fill="none" xmlns="http://www.w3.org/2000/svg">
<g clip-path="url(#clip0_392_52489)">
<path fill-rule="evenodd" clip-rule="evenodd" d="M23 4C23.5523 4 24 4.44772 24 5V11C24 11.5523 23.5523 12 23 12H17C16.4477 12 16 11.5523 16 11C16 10.4477 16.4477 10 17 10H22V5C22 4.44772 22.4477 4 23 4Z" fill="white"/>
<path fill-rule="evenodd" clip-rule="evenodd" d="M0 15C0 14.4477 0.447715 14 1 14H7C7.55228 14 8 14.4477 8 15C8 15.5523 7.55228 16 7 16H2V21C2 21.5523 1.55228 22 1 22C0.447715 22 0 21.5523 0 21V15Z" fill="white"/>
<path fill-rule="evenodd" clip-rule="evenodd" d="M14.2173 5.31747C12.9192 4.94198 11.547 4.90145 10.229 5.19968C8.91091 5.49791 7.68987 6.12517 6.6798 7.02293C5.66973 7.9207 4.90353 9.0597 4.45272 10.3337C4.26848 10.8543 3.69705 11.127 3.17641 10.9428C2.65576 10.7586 2.38305 10.1871 2.56729 9.66648C3.13081 8.07402 4.08855 6.65026 5.35114 5.52806C6.61373 4.40585 8.14003 3.62177 9.78761 3.24899C11.4352 2.8762 13.1503 2.92686 14.7731 3.39623C16.3906 3.86411 17.8637 4.73284 19.0559 5.92177L23.6848 10.2713C24.0873 10.6495 24.1069 11.2824 23.7288 11.6849C23.3506 12.0873 22.7177 12.107 22.3152 11.7288L17.6752 7.36883C17.6676 7.36167 17.6601 7.3544 17.6527 7.34701C16.6974 6.3912 15.5155 5.69297 14.2173 5.31747ZM0.27125 14.3153C0.649442 13.9128 1.2823 13.8931 1.68478 14.2713L6.32478 18.6313C6.3324 18.6385 6.3399 18.6458 6.34729 18.6531C7.30262 19.609 8.48451 20.3072 9.78267 20.6827C11.0808 21.0582 12.453 21.0987 13.771 20.8005C15.0891 20.5022 16.3101 19.875 17.3202 18.9772C18.3303 18.0795 19.0965 16.9404 19.5473 15.6665C19.7315 15.1458 20.303 14.8731 20.8236 15.0574C21.3442 15.2416 21.617 15.813 21.4327 16.3337C20.8692 17.9261 19.9115 19.3499 18.6489 20.4721C17.3863 21.5943 15.86 22.3784 14.2124 22.7512C12.5648 23.1239 10.8497 23.0733 9.22695 22.6039C7.6094 22.136 6.13627 21.2673 4.94411 20.0784L0.315226 15.7288C-0.0872528 15.3506 -0.106942 14.7178 0.27125 14.3153Z" fill="white"/>
</g>
<defs>
<clipPath id="clip0_392_52489">
<rect width="24" height="24" fill="white" transform="translate(0 0.936523)"/>
</clipPath>
</defs>
</svg>
