<svg width="24" height="25" viewBox="0 0 24 25" fill="none" xmlns="http://www.w3.org/2000/svg">
<path fill-rule="evenodd" clip-rule="evenodd" d="M12.8847 2.51923H16.9427L16.9424 3.01958C16.9417 3.95092 17.2459 4.8544 17.8047 5.58615C18.3507 6.30129 19.1086 6.8117 19.961 7.04281H20.5V11.6814L19.9995 11.6809C18.949 11.6799 17.9109 11.4705 16.9424 11.0665V16.6381C16.9424 18.4544 16.2369 20.1985 14.9777 21.4862C13.7181 22.7743 12.0074 23.5 10.2212 23.5C8.43496 23.5 6.72422 22.7743 5.46466 21.4862C4.20547 20.1985 3.5 18.4544 3.5 16.6381C3.5 14.8218 4.20547 13.0776 5.46466 11.79C6.72422 10.5019 8.43496 9.7762 10.2212 9.7762H10.7212V14.4029L10.223 14.4047C9.65164 14.4067 9.10207 14.6402 8.6953 15.0576C8.28817 15.4754 8.05764 16.0436 8.05765 16.6381C8.05765 17.2314 8.28824 17.7983 8.69526 18.2145C9.10191 18.6304 9.65103 18.8619 10.2212 18.8619C10.7913 18.8619 11.3404 18.6304 11.7471 18.2145C12.1541 17.7983 12.3847 17.2314 12.3847 16.6381V2.99998H12.8847V2.51923ZM13.3847 3.51923V16.6381C13.3847 17.4895 13.0541 18.3083 12.4621 18.9137C11.8697 19.5194 11.0639 19.8619 10.2212 19.8619C9.3785 19.8619 8.57266 19.5194 7.98029 18.9137C7.38829 18.3083 7.05765 17.4895 7.05765 16.6381C7.05764 15.7861 7.38776 14.9666 7.9791 14.3597C8.4529 13.8735 9.06367 13.5556 9.72118 13.4466V10.7986C8.39026 10.9182 7.1346 11.5126 6.17963 12.4891C5.10542 13.5876 4.5 15.0799 4.5 16.6381C4.5 18.1963 5.10542 19.6885 6.17963 20.787C7.25346 21.8852 8.70748 22.5 10.2212 22.5C11.7349 22.5 13.1889 21.8852 14.2627 20.787C15.3369 19.6885 15.9424 18.1963 15.9424 16.6381V9.45898L16.8566 9.92644C16.8563 9.9263 16.8568 9.92657 16.8566 9.92644C17.6842 10.3457 18.5827 10.5952 19.5 10.6624V7.94942C18.5146 7.63757 17.6452 7.02503 17.0099 6.19304C16.4178 5.41766 16.0578 4.48941 15.9658 3.51923H13.3847Z" fill="white"/>
</svg>
