<svg width="24" height="25" viewBox="0 0 24 25" fill="none" xmlns="http://www.w3.org/2000/svg">
<path fill-rule="evenodd" clip-rule="evenodd" d="M6.53518 4.18652C5.95006 4.18652 5.40366 4.47895 5.07909 4.9658L1.48987 10.3496C1.27014 10.6792 1.24386 11.1013 1.42101 11.4556C3.38512 15.3838 6.11467 18.8798 9.44923 21.738L11.2 23.2386C11.6603 23.6332 12.3397 23.6332 12.8 23.2386L14.5508 21.738C17.8853 18.8798 20.6149 15.3838 22.579 11.4556C22.7561 11.1013 22.7299 10.6792 22.5101 10.3496L18.9209 4.9658C18.5963 4.47895 18.0499 4.18652 17.4648 4.18652H6.53518ZM6.32717 5.79785C6.37353 5.7283 6.45159 5.68652 6.53518 5.68652H8.87499L6.95987 10.2828C6.91576 10.3887 6.88246 10.4979 6.86002 10.6088C6.15619 10.5564 5.45296 10.4932 4.75057 10.4193L3.34486 10.2713L6.32717 5.79785ZM3.27865 11.7726C5.07205 15.0626 7.44021 18.0079 10.2732 20.4678L7.14775 12.1332C6.29541 12.0746 5.44387 12.0005 4.59355 11.911L3.27865 11.7726ZM8.78481 12.2267L12 20.8005L15.2152 12.2267C13.0728 12.3241 10.9272 12.3241 8.78481 12.2267ZM16.8523 12.1332L13.7268 20.4678C16.5598 18.0079 18.9279 15.0626 20.7213 11.7726L19.4064 11.911C18.5561 12.0005 17.7046 12.0746 16.8523 12.1332ZM20.6551 10.2713L19.2494 10.4193C18.547 10.4932 17.8438 10.5564 17.14 10.6088C17.1175 10.4979 17.0842 10.3887 17.0401 10.2828L15.125 5.68652H17.4648C17.5484 5.68652 17.6265 5.7283 17.6728 5.79785L20.6551 10.2713ZM15.5917 10.7066C13.1988 10.8308 10.8012 10.8308 8.4083 10.7066L10.5 5.68652H13.5L15.5917 10.7066Z" fill="white"/>
</svg>
