<svg width="24" height="25" viewBox="0 0 24 25" fill="none" xmlns="http://www.w3.org/2000/svg">
<path fill-rule="evenodd" clip-rule="evenodd" d="M10.7379 17.5638C9.96427 17.5638 9.31895 16.9726 9.2514 16.2019C9.11015 14.5906 9.07441 12.9721 9.14427 11.3568C9.05994 11.3512 8.97563 11.3453 8.89133 11.3392L7.40178 11.2306C6.44973 11.1612 5.91752 10.0996 6.43151 9.29523C7.5277 7.57972 9.53693 5.65967 11.1904 4.47193C11.6742 4.12439 12.3258 4.12439 12.8097 4.47193C14.4631 5.65967 16.4723 7.57972 17.5685 9.29523C18.0825 10.0996 17.5503 11.1612 16.5983 11.2306L15.1087 11.3392C15.0244 11.3453 14.9401 11.3512 14.8558 11.3568C14.9256 12.9721 14.8899 14.5906 14.7486 16.2019C14.6811 16.9726 14.0358 17.5638 13.2622 17.5638H10.7379ZM10.6815 10.6991C10.5678 12.4863 10.589 14.2796 10.745 16.0638H13.255C13.411 14.2796 13.4323 12.4863 13.3186 10.6991C13.3058 10.4987 13.3739 10.3016 13.5077 10.1518C13.6414 10.0021 13.8296 9.91222 14.0301 9.90234C14.3535 9.88641 14.6767 9.86668 14.9997 9.84313L16.0815 9.76428C15.1219 8.35098 13.9204 7.11673 12.5313 6.11887L12 5.73723L11.4687 6.11887C10.0796 7.11673 8.87813 8.35098 7.91858 9.76428L9.00038 9.84313C9.32337 9.86668 9.64656 9.88641 9.9699 9.90234C10.1704 9.91222 10.3586 10.0021 10.4924 10.1518C10.6261 10.3016 10.6942 10.4987 10.6815 10.6991Z" fill="white"/>
<path d="M5.75 17.9365C5.75 17.5223 5.41421 17.1865 5 17.1865C4.58579 17.1865 4.25 17.5223 4.25 17.9365V19.9365C4.25 20.903 5.0335 21.6865 6 21.6865H18C18.9665 21.6865 19.75 20.903 19.75 19.9365V17.9365C19.75 17.5223 19.4142 17.1865 19 17.1865C18.5858 17.1865 18.25 17.5223 18.25 17.9365V19.9365C18.25 20.0746 18.1381 20.1865 18 20.1865H6C5.86193 20.1865 5.75 20.0746 5.75 19.9365V17.9365Z" fill="white"/>
</svg>
