<svg width="24" height="25" viewBox="0 0 24 25" fill="none" xmlns="http://www.w3.org/2000/svg">
<path fill-rule="evenodd" clip-rule="evenodd" d="M3.11021 4.15363C3.17084 4.23812 4.57486 6.23414 6.23029 8.58921C7.88571 10.9443 9.41681 13.1222 9.63277 13.4291C9.8487 13.736 10.0254 13.9932 10.0254 14.0007C10.0254 14.0083 9.94497 14.1051 9.84669 14.2159C9.74842 14.3267 9.47159 14.6404 9.23157 14.913C8.99152 15.1856 8.58687 15.645 8.33233 15.9339C8.07781 16.2229 7.63003 16.7313 7.33726 17.0639C7.0445 17.3964 6.51803 17.9943 6.16733 18.3925C5.08266 19.624 4.92614 19.8019 4.10045 20.7412C3.65957 21.2427 3.2368 21.7223 3.16097 21.8068C3.08514 21.8914 3.0231 21.9695 3.0231 21.9803C3.0231 21.993 3.30002 22 3.80331 22H4.58351L5.44126 21.0237C5.91303 20.4867 6.37841 19.9581 6.47543 19.8491C6.68523 19.6134 8.2852 17.7951 8.41969 17.6396C8.47118 17.58 8.54597 17.4953 8.5859 17.4512C8.62584 17.4072 8.94062 17.05 9.28541 16.6575C9.63019 16.265 9.92177 15.9342 9.93332 15.9225C9.94489 15.9107 10.1274 15.7033 10.3389 15.4616C10.5505 15.2198 10.7301 15.022 10.7381 15.022C10.746 15.022 11.8326 16.5586 13.1527 18.4367C14.4728 20.3147 15.5765 21.8846 15.6053 21.9252L15.6577 21.9991L18.3339 21.9996C20.5347 21.9999 21.0083 21.9954 20.9999 21.974C20.991 21.9512 19.7088 20.1245 16.4193 15.4482C14.0512 12.0818 13.7364 11.6295 13.7454 11.6065C13.7542 11.5842 14.0767 11.2157 16.1972 8.80562C16.561 8.39222 17.0624 7.82203 17.3115 7.53855C17.5606 7.25507 17.8121 6.9696 17.8704 6.90418C17.9287 6.83877 18.2352 6.49086 18.5516 6.13106C18.8679 5.77126 19.4056 5.15989 19.7466 4.77247C20.0875 4.38506 20.379 4.05277 20.3943 4.03404C20.4205 4.00198 20.376 4 19.6297 4H18.8372L18.4847 4.40143C18.0156 4.93568 17.1676 5.8991 16.9268 6.17134C16.8204 6.29163 16.6877 6.44281 16.6319 6.50727C16.5761 6.57174 16.4659 6.69633 16.3872 6.78415C16.3084 6.87197 15.9114 7.32296 15.505 7.78634C15.0986 8.24972 14.7605 8.63331 14.7537 8.63877C14.7469 8.64422 14.6598 8.74288 14.5601 8.85804C14.3859 9.05945 14.2085 9.26105 13.3951 10.1823C13.0381 10.5868 13.0198 10.6041 12.9897 10.5669C12.9724 10.5455 11.9261 9.05929 10.6647 7.2642L8.37122 4.00042L5.68561 4.0002L3 4L3.11021 4.15363ZM5.20629 5.22396C5.22646 5.25403 5.72823 5.95661 6.32136 6.78524C7.44625 8.35679 11.8666 14.5361 14.7094 18.511C15.6179 19.7812 16.3722 20.8317 16.3858 20.8454C16.4051 20.865 16.6696 20.8693 17.6217 20.8652L18.833 20.8601L15.6633 16.4295C13.9199 13.9927 11.3958 10.4645 10.0542 8.58921L7.61481 5.17952L6.39223 5.1744L5.16965 5.16929L5.20629 5.22396Z" fill="#FAFAFA"/>
</svg>
